<svg id="visual" viewBox="0 0 960 540" width="960" height="540" xmlns="http://www.w3.org/2000/svg" xmlns:xlink="http://www.w3.org/1999/xlink" version="1.1"><rect x="0" y="0" width="960" height="540" fill="#429fff"></rect><defs><linearGradient id="grad1_0" x1="43.8%" y1="0%" x2="100%" y2="100%"><stop offset="14.444444444444446%" stop-color="#429fff" stop-opacity="1"></stop><stop offset="85.55555555555554%" stop-color="#429fff" stop-opacity="1"></stop></linearGradient></defs><defs><linearGradient id="grad2_0" x1="0%" y1="0%" x2="56.3%" y2="100%"><stop offset="14.444444444444446%" stop-color="#429fff" stop-opacity="1"></stop><stop offset="85.55555555555554%" stop-color="#429fff" stop-opacity="1"></stop></linearGradient></defs><g transform="translate(960, 0)"><path d="M0 413C-37.8 415.1 -75.6 417.3 -109 406.7C-142.3 396 -171.1 372.6 -205.5 355.9C-239.9 339.3 -279.8 329.4 -304.8 304.8C-329.7 280.1 -339.7 240.7 -358.5 207C-377.4 173.3 -405.1 145.4 -417.3 111.8C-429.5 78.3 -426.2 39.1 -423 0L0 0Z" fill="#fff"></path></g><g transform="translate(0, 540)"><path d="M0 -411C38 -416.4 76 -421.7 110.8 -413.4C145.6 -405.1 177.1 -383.1 210.5 -364.6C243.9 -346 279.1 -330.9 305.5 -305.5C331.8 -280 349.3 -244.3 362.9 -209.5C376.4 -174.7 386 -140.9 396 -106.1C406.1 -71.4 416.5 -35.7 427 0L0 0Z" fill="#fff"></path></g></svg>