<svg id="visual" viewBox="0 0 1600 500" width="1600" height="500" xmlns="http://www.w3.org/2000/svg" xmlns:xlink="http://www.w3.org/1999/xlink" version="1.1"><path d="M0 126L44.5 122.7C89 119.3 178 112.7 266.8 116C355.7 119.3 444.3 132.7 533.2 137.7C622 142.7 711 139.3 800 138.5C889 137.7 978 139.3 1066.8 137.7C1155.7 136 1244.3 131 1333.2 131C1422 131 1511 136 1555.5 138.5L1600 141L1600 0L1555.5 0C1511 0 1422 0 1333.2 0C1244.3 0 1155.7 0 1066.8 0C978 0 889 0 800 0C711 0 622 0 533.2 0C444.3 0 355.7 0 266.8 0C178 0 89 0 44.5 0L0 0Z" fill="#017eff"></path><path d="M0 311L44.5 303.5C89 296 178 281 266.8 278.5C355.7 276 444.3 286 533.2 299.3C622 312.7 711 329.3 800 336C889 342.7 978 339.3 1066.8 330.2C1155.7 321 1244.3 306 1333.2 297.7C1422 289.3 1511 287.7 1555.5 286.8L1600 286L1600 139L1555.5 136.5C1511 134 1422 129 1333.2 129C1244.3 129 1155.7 134 1066.8 135.7C978 137.3 889 135.7 800 136.5C711 137.3 622 140.7 533.2 135.7C444.3 130.7 355.7 117.3 266.8 114C178 110.7 89 117.3 44.5 120.7L0 124Z" fill="#abbbff"></path><path d="M0 501L44.5 501C89 501 178 501 266.8 501C355.7 501 444.3 501 533.2 501C622 501 711 501 800 501C889 501 978 501 1066.8 501C1155.7 501 1244.3 501 1333.2 501C1422 501 1511 501 1555.5 501L1600 501L1600 284L1555.5 284.8C1511 285.7 1422 287.3 1333.2 295.7C1244.3 304 1155.7 319 1066.8 328.2C978 337.3 889 340.7 800 334C711 327.3 622 310.7 533.2 297.3C444.3 284 355.7 274 266.8 276.5C178 279 89 294 44.5 301.5L0 309Z" fill="#ffffff"></path></svg>