<svg id="visual" viewBox="0 0 960 540" width="960" height="540" xmlns="http://www.w3.org/2000/svg" xmlns:xlink="http://www.w3.org/1999/xlink" version="1.1"><rect x="0" y="0" width="960" height="540" fill="#ffffff"></rect><path d="M0 285L26.7 267.5C53.3 250 106.7 215 160 195.7C213.3 176.3 266.7 172.7 320 194.3C373.3 216 426.7 263 480 273C533.3 283 586.7 256 640 252.3C693.3 248.7 746.7 268.3 800 298.2C853.3 328 906.7 368 933.3 388L960 408L960 0L933.3 0C906.7 0 853.3 0 800 0C746.7 0 693.3 0 640 0C586.7 0 533.3 0 480 0C426.7 0 373.3 0 320 0C266.7 0 213.3 0 160 0C106.7 0 53.3 0 26.7 0L0 0Z" fill="#0080e2" stroke-linecap="round" stroke-linejoin="miter"></path></svg>