<svg class="animated" id="freepik_stories-sedan-car" xmlns="http://www.w3.org/2000/svg" viewBox="0 0 750 500" version="1.1" xmlns:xlink="http://www.w3.org/1999/xlink" xmlns:svgjs="http://svgjs.com/svgjs"><style>svg#freepik_stories-sedan-car:not(.animated) .animable {opacity: 0;}svg#freepik_stories-sedan-car.animated #freepik--Car--inject-3 {animation: 1s 1 forwards ease-out slideRight,3s Infinite  linear shake;animation-delay: 0s,1s;}            @keyframes slideRight {                0% {                    opacity: 0;                    transform: translateX(30px);                }                100% {                    opacity: 1;                    transform: translateX(0);                }            }                    @keyframes shake {                10%, 90% {                    transform: translate3d(-1px, 0, 0);                  }                  20%, 80% {                    transform: translate3d(2px, 0, 0);                  }                  30%, 50%, 70% {                    transform: translate3d(-4px, 0, 0);                  }                  40%, 60% {                    transform: translate3d(4px, 0, 0);                  }            }        .animator-hidden { display: none; }</style><g id="freepik--Clouds--inject-3" class="animable" style="transform-origin: 372.745px 103.694px;"><path d="M215.08,101.79c2.89-1.7,5.33-5.1,8.1-7.27,7.06-5.52,15.7-8.81,24.72-8.62,20.69,.42,29.13,22.8,31.66,23.64,2.53,.84,8.02-8.02,17.31-6.33s10.98,9.29,13.93,11.4c2.96,2.11,10.98-3.8,16.04-2.11,5.07,1.69,4.22,7.18,9.29,7.6,5.07,.42,8.02-2.11,11.82-1.27,3.8,.84,6.33,4.64,6.33,4.64-58.69,0-117.39-.01-176.08,0-42.91,0-85.82,0-128.73,0,4.63-7.83,11.09-15.06,19.66-18.12,13.07-4.66,27.21,1.29,40.9,3.53,1.37,.22,2.85,.39,4.08-.25,1.65-.87,2.27-2.88,2.7-4.7,2.45-10.37,3.8-21.34,9.53-30.32,8.94-14.03,28.63-20.01,43.86-13.33,14.31,6.27,22.65,20.94,31.03,34.13,1.68,2.65,3.48,5.35,6.12,7.04,3.07,1.97,5.53,1.65,7.73,.35Z" style="fill: none; stroke: rgb(38, 50, 56); stroke-miterlimit: 10; transform-origin: 201.875px 90.5075px;" id="elec6mqrlfj04" class="animable"></path><path d="M481.73,149.9c1.66-.98,3.06-2.93,4.66-4.18,4.06-3.18,9.03-5.06,14.22-4.96,11.9,.24,16.75,13.11,18.21,13.6,1.46,.49,4.61-4.61,9.95-3.64,5.34,.97,6.31,5.34,8.01,6.56,1.7,1.21,6.31-2.19,9.23-1.21,2.91,.97,2.43,4.13,5.34,4.37,2.91,.24,4.61-1.21,6.8-.73,2.19,.49,3.64,2.67,3.64,2.67-33.76,0-67.51,0-101.27,0-24.68,0-49.36,0-74.04,0,2.66-4.5,6.38-8.66,11.3-10.42,7.51-2.68,15.65,.74,23.52,2.03,.79,.13,1.64,.23,2.35-.15,.95-.5,1.31-1.66,1.55-2.7,1.41-5.96,2.19-12.27,5.48-17.44,5.14-8.07,16.46-11.51,25.23-7.67,8.23,3.61,13.03,12.04,17.85,19.63,.97,1.52,2,3.08,3.52,4.05,1.77,1.13,3.18,.95,4.45,.2Z" style="fill: none; stroke: rgb(38, 50, 56); stroke-miterlimit: 10; transform-origin: 474.135px 143.419px;" id="el78jz3ak1se7" class="animable"></path><path d="M628.76,66.4c1.4-.82,2.57-2.46,3.91-3.51,3.41-2.67,7.59-4.25,11.95-4.17,9.99,.2,14.07,11.01,15.3,11.42,1.22,.41,3.88-3.88,8.36-3.06,4.49,.82,5.3,4.49,6.73,5.51,1.43,1.02,5.3-1.84,7.75-1.02,2.45,.82,2.04,3.47,4.49,3.67,2.45,.2,3.88-1.02,5.71-.61,1.84,.41,3.06,2.24,3.06,2.24-28.36,0-56.72,0-85.08,0-20.73,0-41.47,0-62.2,0,2.24-3.78,5.36-7.28,9.5-8.76,6.31-2.25,13.15,.62,19.76,1.7,.66,.11,1.38,.19,1.97-.12,.8-.42,1.1-1.39,1.31-2.27,1.19-5.01,1.84-10.31,4.6-14.65,4.32-6.78,13.83-9.67,21.19-6.44,6.91,3.03,10.94,10.12,14.99,16.49,.81,1.28,1.68,2.58,2.96,3.4,1.48,.95,2.67,.8,3.74,.17Z" style="fill: none; stroke: rgb(38, 50, 56); stroke-miterlimit: 10; transform-origin: 622.38px 60.9386px;" id="eluka584arse8" class="animable"></path></g><g id="freepik--Mountains--inject-3" class="animable" style="transform-origin: 369.78px 260.879px;"><g id="eltejyyrp5wc8" class="animable" style="transform-origin: 369.78px 260.879px;"><path d="M723.66,328.1c5.13,4.55,8.06,7.18,8.06,7.18" style="fill: none; stroke: rgb(38, 50, 56); stroke-miterlimit: 10; transform-origin: 727.69px 331.69px;" id="elp5k40yjl27e" class="animable"></path><path d="M564.48,198.86c43.24,28.04,121.62,96.1,153.34,124.09" style="fill: none; stroke: rgb(38, 50, 56); stroke-miterlimit: 10; transform-origin: 641.15px 260.905px;" id="el9v00jkrsnk4" class="animable"></path><path d="M256.38,219.24c59.08,17.65,143.92,55.32,143.92,55.32,0,0,114.53-81.5,136.67-87.89,3.47-1,10.64,1.96,20.26,7.67" style="fill: none; stroke: rgb(38, 50, 56); stroke-miterlimit: 10; transform-origin: 406.805px 230.519px;" id="el28owy2395ir" class="animable"></path><path d="M7.84,311.31s164.16-95.08,200.05-100.67c8.59-1.34,24.09,1.62,42.69,6.91" style="fill: none; stroke: rgb(38, 50, 56); stroke-miterlimit: 10; transform-origin: 129.21px 260.814px;" id="el34bgnjc3ltk" class="animable"></path></g></g><g id="freepik--Trees--inject-3" class="animable animator-hidden" style="transform-origin: 375.25px 236.28px;"><g id="elbv1nooxlgad" class="animable" style="transform-origin: 625.38px 236.28px;"><path d="M674.17,193.64c0,36.93-21.85,66.87-48.79,66.87s-48.79-29.94-48.79-66.87,21.85-163.85,48.79-163.85,48.79,126.92,48.79,163.85Z" style="fill: rgb(1, 126, 255); transform-origin: 625.38px 145.15px;" id="elxlux0pmim7t" class="animable"></path><g id="elbqfu2p9c8pf"><path d="M674.17,193.64c0,36.93-21.85,66.87-48.79,66.87s-48.79-29.94-48.79-66.87,21.85-163.85,48.79-163.85,48.79,126.92,48.79,163.85Z" style="fill: rgb(255, 255, 255); opacity: 0.38; transform-origin: 625.38px 145.15px;" class="animable"></path></g><polygon points="599.01 196.96 614.57 202.39 622.28 212.87 620.94 244.96 611.96 238.87 620.66 251.6 618.01 442.77 629.8 442.77 626.88 227.21 652.73 212.97 637.96 218.43 640.92 209.54 633.86 219.95 626.8 222.55 626.3 193.35 651.97 159.25 638.21 173 640.54 163.44 633.96 177.26 626.16 185.06 625.37 139.43 622.57 205.98 598.25 180.2 611.61 198.36 599.01 196.96" style="fill: rgb(120, 120, 120); transform-origin: 625.49px 291.1px;" id="elb2jpyierd05" class="animable"></polygon><g id="elsby11rmw3s" class="animable" style="transform-origin: 626.365px 143.523px;"><path d="M652.21,139.57s.45,4.48-2,7.77c-2.45,3.29-6.87,4.14-6.87,4.14,0,0-.45-4.48,2-7.77,2.45-3.29,6.87-4.14,6.87-4.14Z" style="fill: rgb(255, 255, 255); transform-origin: 647.775px 145.525px;" id="elanx4cgq96ce" class="animable"></path><path d="M666.92,160.23s.45,4.48-2,7.77c-2.45,3.29-6.87,4.14-6.87,4.14,0,0-.45-4.48,2-7.77,2.45-3.29,6.87-4.14,6.87-4.14Z" style="fill: rgb(255, 255, 255); transform-origin: 662.485px 166.185px;" id="eldwir01420da" class="animable"></path><path d="M666.91,200.47s-1.08,4.37-4.5,6.65c-3.41,2.27-7.87,1.59-7.87,1.59,0,0,1.08-4.37,4.5-6.65,3.41-2.27,7.87-1.59,7.87-1.59Z" style="fill: rgb(255, 255, 255); transform-origin: 660.725px 204.59px;" id="el0rjkanbddep" class="animable"></path><path d="M586.15,200.47s1.08,4.37,4.5,6.65c3.42,2.27,7.87,1.59,7.87,1.59,0,0-1.08-4.37-4.5-6.65-3.42-2.27-7.87-1.59-7.87-1.59Z" style="fill: rgb(255, 255, 255); transform-origin: 592.335px 204.59px;" id="elkkebgagj0n" class="animable"></path><path d="M649.93,183.77s.45,4.48-2,7.77c-2.45,3.29-6.87,4.14-6.87,4.14,0,0-.45-4.48,2-7.77,2.45-3.29,6.87-4.14,6.87-4.14Z" style="fill: rgb(255, 255, 255); transform-origin: 645.495px 189.725px;" id="elab4mv2sfmc" class="animable"></path><path d="M646.12,117.09s.45,4.48-2,7.77c-2.45,3.29-6.87,4.14-6.87,4.14,0,0-.45-4.48,2-7.77,2.45-3.29,6.87-4.14,6.87-4.14Z" style="fill: rgb(255, 255, 255); transform-origin: 641.685px 123.045px;" id="elve845qrf7do" class="animable"></path><path d="M637.36,134.24s.45,4.48-2,7.77-6.87,4.14-6.87,4.14c0,0-.45-4.48,2-7.77,2.45-3.29,6.87-4.14,6.87-4.14Z" style="fill: rgb(255, 255, 255); transform-origin: 632.925px 140.195px;" id="eluufm8g8irq" class="animable"></path><path d="M658.16,121.76s.45,4.48-2,7.77c-2.45,3.29-6.87,4.14-6.87,4.14,0,0-.45-4.48,2-7.77,2.45-3.29,6.87-4.14,6.87-4.14Z" style="fill: rgb(255, 255, 255); transform-origin: 653.725px 127.715px;" id="elqrto70mjm4o" class="animable"></path><path d="M590.56,121.76s-.45,4.48,2,7.77c2.45,3.29,6.87,4.14,6.87,4.14,0,0,.45-4.48-2-7.77-2.45-3.29-6.87-4.14-6.87-4.14Z" style="fill: rgb(255, 255, 255); transform-origin: 594.995px 127.715px;" id="elvqzuuqbo4h" class="animable"></path><path d="M648.02,96.14s.45,4.48-2,7.77c-2.45,3.29-6.87,4.14-6.87,4.14,0,0-.45-4.48,2-7.77,2.45-3.29,6.87-4.14,6.87-4.14Z" style="fill: rgb(255, 255, 255); transform-origin: 643.585px 102.095px;" id="elat8udwwv5v5" class="animable"></path><path d="M643.72,73.88s1.56,4.23,.02,8.03c-1.54,3.8-5.61,5.74-5.61,5.74,0,0-1.56-4.23-.02-8.03,1.55-3.8,5.61-5.74,5.61-5.74Z" style="fill: rgb(255, 255, 255); transform-origin: 640.925px 80.765px;" id="el3kcsymydgk8" class="animable"></path><path d="M612.86,68.06s3.99,2.09,5.39,5.95c1.4,3.86-.32,8.02-.32,8.02,0,0-3.99-2.09-5.39-5.95-1.4-3.86,.32-8.02,.32-8.02Z" style="fill: rgb(255, 255, 255); transform-origin: 615.395px 75.045px;" id="elf30wlrfa5r7" class="animable"></path><path d="M627.25,94.68s2.84,3.5,2.61,7.59c-.24,4.1-3.46,7.24-3.46,7.24,0,0-2.84-3.5-2.61-7.59,.24-4.1,3.46-7.24,3.46-7.24Z" style="fill: rgb(255, 255, 255); transform-origin: 626.825px 102.095px;" id="elsmefiegsd8" class="animable"></path><path d="M626.49,55.06s2.84,3.5,2.61,7.59c-.24,4.1-3.46,7.24-3.46,7.24,0,0-2.84-3.5-2.61-7.59,.24-4.1,3.46-7.24,3.46-7.24Z" style="fill: rgb(255, 255, 255); transform-origin: 626.065px 62.475px;" id="el8m2gk4ky1p6" class="animable"></path><path d="M594.19,139.57s-.45,4.48,2,7.77,6.87,4.14,6.87,4.14c0,0,.45-4.48-2-7.77-2.45-3.29-6.87-4.14-6.87-4.14Z" style="fill: rgb(255, 255, 255); transform-origin: 598.625px 145.525px;" id="elhrcpgtshvs" class="animable"></path><path d="M585.81,163.95s-.45,4.48,2,7.77c2.45,3.29,6.87,4.14,6.87,4.14,0,0,.45-4.48-2-7.77-2.45-3.29-6.87-4.14-6.87-4.14Z" style="fill: rgb(255, 255, 255); transform-origin: 590.245px 169.905px;" id="elik8jj59wajb" class="animable"></path><path d="M608.06,172.81s-.45,4.48,2,7.77c2.45,3.29,6.87,4.14,6.87,4.14,0,0,.45-4.48-2-7.77-2.45-3.29-6.87-4.14-6.87-4.14Z" style="fill: rgb(255, 255, 255); transform-origin: 612.495px 178.765px;" id="el60azy4imbmy" class="animable"></path><path d="M614.14,139.02s-1.72,4.17-.31,8.02c1.41,3.86,5.4,5.94,5.4,5.94,0,0,1.72-4.17,.31-8.02-1.41-3.85-5.4-5.94-5.4-5.94Z" style="fill: rgb(255, 255, 255); transform-origin: 616.685px 146px;" id="el6v9k5kybxvp" class="animable"></path><path d="M598.39,228.92s4.5,.08,7.58-2.63c3.08-2.71,3.57-7.19,3.57-7.19,0,0-4.5-.08-7.58,2.63-3.08,2.71-3.57,7.19-3.57,7.19Z" style="fill: rgb(255, 255, 255); transform-origin: 603.965px 224.01px;" id="el813d04s8ubb" class="animable"></path><path d="M641.62,224s1.22,4.34,4.71,6.5c3.49,2.16,7.91,1.33,7.91,1.33,0,0-1.22-4.34-4.71-6.5-3.49-2.16-7.91-1.33-7.91-1.33Z" style="fill: rgb(255, 255, 255); transform-origin: 647.93px 227.915px;" id="elt3ukmk4dweg" class="animable"></path><path d="M603.41,117.09s-.45,4.48,2,7.77c2.45,3.29,6.87,4.14,6.87,4.14,0,0,.45-4.48-2-7.77-2.45-3.29-6.87-4.14-6.87-4.14Z" style="fill: rgb(255, 255, 255); transform-origin: 607.845px 123.045px;" id="elwhcqhob3jrf" class="animable"></path><path d="M603.34,97.28s-.45,4.48,2,7.77c2.45,3.29,6.87,4.14,6.87,4.14,0,0,.45-4.48-2-7.77-2.45-3.29-6.87-4.14-6.87-4.14Z" style="fill: rgb(255, 255, 255); transform-origin: 607.775px 103.235px;" id="el0osyailvzkb" class="animable"></path></g></g><g id="elwqh5mcym3do" class="animable" style="transform-origin: 116.08px 274.57px;"><path d="M155.83,239.84c0,30.08-17.8,54.47-39.75,54.47s-39.75-24.39-39.75-54.47,17.8-133.47,39.75-133.47,39.75,103.39,39.75,133.47Z" style="fill: rgb(1, 126, 255); transform-origin: 116.08px 200.34px;" id="eltqcalj0hj6n" class="animable"></path><g id="el59l9r5qziq"><path d="M155.83,239.84c0,30.08-17.8,54.47-39.75,54.47s-39.75-24.39-39.75-54.47,17.8-133.47,39.75-133.47,39.75,103.39,39.75,133.47Z" style="fill: rgb(255, 255, 255); opacity: 0.38; transform-origin: 116.08px 200.34px;" class="animable"></path></g><polygon points="94.62 242.55 107.29 246.97 113.57 255.5 112.48 281.64 105.17 276.68 112.25 287.05 110.1 442.77 119.69 442.77 117.32 267.19 138.37 255.58 126.34 260.03 128.75 252.79 123 261.27 117.25 263.39 116.84 239.6 137.75 211.82 126.55 223.03 128.44 215.24 123.08 226.49 116.73 232.85 116.09 195.68 113.81 249.89 94 228.89 104.88 243.69 94.62 242.55" style="fill: rgb(120, 120, 120); transform-origin: 116.185px 319.225px;" id="elbu2dx48ex3e" class="animable"></polygon><g id="el02jestj5jxxb" class="animable" style="transform-origin: 116.895px 199.008px;"><path d="M137.95,195.8s.37,3.65-1.63,6.33c-2,2.68-5.6,3.38-5.6,3.38,0,0-.37-3.65,1.63-6.33,2-2.68,5.6-3.38,5.6-3.38Z" style="fill: rgb(255, 255, 255); transform-origin: 134.335px 200.655px;" id="el8mx7keoi4yc" class="animable"></path><path d="M149.93,212.63s.37,3.65-1.63,6.33c-2,2.68-5.6,3.38-5.6,3.38,0,0-.37-3.65,1.63-6.33,2-2.68,5.6-3.38,5.6-3.38Z" style="fill: rgb(255, 255, 255); transform-origin: 146.315px 217.485px;" id="el7gsuirw8bat" class="animable"></path><path d="M149.93,245.4s-.88,3.56-3.66,5.41c-2.78,1.85-6.41,1.29-6.41,1.29,0,0,.88-3.56,3.66-5.41,2.78-1.85,6.41-1.29,6.41-1.29Z" style="fill: rgb(255, 255, 255); transform-origin: 144.895px 248.75px;" id="elsn3v5gx62zj" class="animable"></path><path d="M84.14,245.4s.88,3.56,3.66,5.41c2.78,1.85,6.41,1.29,6.41,1.29,0,0-.88-3.56-3.67-5.41-2.78-1.85-6.41-1.29-6.41-1.29Z" style="fill: rgb(255, 255, 255); transform-origin: 89.17px 248.75px;" id="elgxm8sub7s18" class="animable"></path><path d="M136.09,231.79s.37,3.65-1.63,6.33c-2,2.68-5.6,3.38-5.6,3.38,0,0-.37-3.65,1.63-6.33,2-2.68,5.6-3.38,5.6-3.38Z" style="fill: rgb(255, 255, 255); transform-origin: 132.475px 236.645px;" id="el4jyhdkuf9z5" class="animable"></path><path d="M132.99,177.49s.37,3.65-1.63,6.33c-2,2.68-5.6,3.38-5.6,3.38,0,0-.37-3.65,1.63-6.33,2-2.68,5.6-3.38,5.6-3.38Z" style="fill: rgb(255, 255, 255); transform-origin: 129.375px 182.345px;" id="elc5o35xfbgan" class="animable"></path><path d="M125.85,191.45s.37,3.65-1.63,6.33c-2,2.68-5.6,3.38-5.6,3.38,0,0-.37-3.65,1.63-6.33,2-2.68,5.6-3.38,5.6-3.38Z" style="fill: rgb(255, 255, 255); transform-origin: 122.235px 196.305px;" id="elrvof8qyhe1" class="animable"></path><path d="M142.8,181.28s.37,3.65-1.63,6.33-5.6,3.38-5.6,3.38c0,0-.37-3.65,1.63-6.33,2-2.68,5.6-3.38,5.6-3.38Z" style="fill: rgb(255, 255, 255); transform-origin: 139.185px 186.135px;" id="elxurqsc3spn" class="animable"></path><path d="M87.73,181.28s-.37,3.65,1.63,6.33c2,2.68,5.6,3.38,5.6,3.38,0,0,.37-3.65-1.63-6.33-2-2.68-5.6-3.38-5.6-3.38Z" style="fill: rgb(255, 255, 255); transform-origin: 91.345px 186.135px;" id="eln7n4ebbq7ia" class="animable"></path><path d="M134.54,160.42s.37,3.65-1.63,6.33c-2,2.68-5.6,3.38-5.6,3.38,0,0-.37-3.65,1.63-6.33,2-2.68,5.6-3.38,5.6-3.38Z" style="fill: rgb(255, 255, 255); transform-origin: 130.925px 165.275px;" id="el6y3rnwcm4as" class="animable"></path><path d="M131.03,142.29s1.27,3.44,.01,6.54c-1.26,3.1-4.57,4.67-4.57,4.67,0,0-1.27-3.44-.01-6.54,1.26-3.1,4.57-4.67,4.57-4.67Z" style="fill: rgb(255, 255, 255); transform-origin: 128.75px 147.895px;" id="el0ypuv2rvu6jb" class="animable"></path><path d="M105.9,137.55s3.25,1.7,4.39,4.84c1.14,3.14-.26,6.53-.26,6.53,0,0-3.25-1.7-4.39-4.84-1.14-3.14,.26-6.53,.26-6.53Z" style="fill: rgb(255, 255, 255); transform-origin: 107.965px 143.235px;" id="elsijrc0f9fi" class="animable"></path><path d="M117.62,159.23s2.32,2.85,2.12,6.18c-.19,3.34-2.82,5.9-2.82,5.9,0,0-2.32-2.85-2.12-6.18s2.82-5.9,2.82-5.9Z" style="fill: rgb(255, 255, 255); transform-origin: 117.27px 165.27px;" id="elvqr287vpebq" class="animable"></path><path d="M117,126.95s2.32,2.85,2.12,6.18c-.19,3.34-2.82,5.9-2.82,5.9,0,0-2.32-2.85-2.12-6.18,.19-3.34,2.82-5.9,2.82-5.9Z" style="fill: rgb(255, 255, 255); transform-origin: 116.65px 132.99px;" id="elk9k75zu8hfq" class="animable"></path><path d="M90.69,195.8s-.37,3.65,1.63,6.33c2,2.68,5.6,3.38,5.6,3.38,0,0,.37-3.65-1.63-6.33-2-2.68-5.6-3.38-5.6-3.38Z" style="fill: rgb(255, 255, 255); transform-origin: 94.305px 200.655px;" id="elr4d1pr3ck6f" class="animable"></path><path d="M83.86,215.66s-.37,3.65,1.63,6.33c2,2.68,5.6,3.38,5.6,3.38,0,0,.37-3.65-1.63-6.33-2-2.68-5.6-3.38-5.6-3.38Z" style="fill: rgb(255, 255, 255); transform-origin: 87.475px 220.515px;" id="elmbzwdwyin" class="animable"></path><path d="M101.99,222.87s-.37,3.65,1.63,6.33c2,2.68,5.6,3.38,5.6,3.38,0,0,.37-3.65-1.63-6.33-2-2.68-5.6-3.38-5.6-3.38Z" style="fill: rgb(255, 255, 255); transform-origin: 105.605px 227.725px;" id="eludkw801yq38" class="animable"></path><path d="M106.94,195.35s-1.4,3.39-.25,6.53c1.14,3.14,4.4,4.84,4.4,4.84,0,0,1.4-3.39,.25-6.53-1.14-3.14-4.4-4.84-4.4-4.84Z" style="fill: rgb(255, 255, 255); transform-origin: 109.015px 201.035px;" id="elptaykungw1" class="animable"></path><path d="M94.11,268.58s3.67,.07,6.18-2.14c2.51-2.21,2.9-5.86,2.9-5.86,0,0-3.67-.07-6.18,2.14-2.51,2.21-2.91,5.86-2.91,5.86Z" style="fill: rgb(255, 255, 255); transform-origin: 98.645px 264.58px;" id="el5unyzod66w5" class="animable"></path><path d="M129.32,264.56s1,3.53,3.84,5.29c2.84,1.76,6.45,1.09,6.45,1.09,0,0-1-3.53-3.84-5.29-2.84-1.76-6.45-1.09-6.45-1.09Z" style="fill: rgb(255, 255, 255); transform-origin: 134.465px 267.75px;" id="els5chpe6a9ub" class="animable"></path><path d="M98.2,177.49s-.37,3.65,1.63,6.33c2,2.68,5.6,3.38,5.6,3.38,0,0,.37-3.65-1.63-6.33-2-2.68-5.6-3.38-5.6-3.38Z" style="fill: rgb(255, 255, 255); transform-origin: 101.815px 182.345px;" id="el9lue9d344t" class="animable"></path><path d="M98.14,161.35s-.37,3.65,1.63,6.33c2,2.68,5.6,3.38,5.6,3.38,0,0,.37-3.65-1.63-6.33-2-2.68-5.6-3.38-5.6-3.38Z" style="fill: rgb(255, 255, 255); transform-origin: 101.755px 166.205px;" id="elab6liu13vjc" class="animable"></path></g></g><g id="ely4dqcy9gp9" class="animable" style="transform-origin: 427.01px 259.01px;"><path d="M470.43,221.07c0,32.86-19.44,59.51-43.42,59.51s-43.42-26.64-43.42-59.51,19.44-145.82,43.42-145.82,43.42,112.95,43.42,145.82Z" style="fill: rgb(1, 126, 255); transform-origin: 427.01px 177.915px;" id="elayl0ke6pw5i" class="animable"></path><g id="elkgy5ge2wy9d"><path d="M470.43,221.07c0,32.86-19.44,59.51-43.42,59.51s-43.42-26.64-43.42-59.51,19.44-145.82,43.42-145.82,43.42,112.95,43.42,145.82Z" style="fill: rgb(255, 255, 255); opacity: 0.38; transform-origin: 427.01px 177.915px;" class="animable"></path></g><polygon points="403.55 224.02 417.4 228.85 424.26 238.18 423.06 266.73 415.08 261.32 422.82 272.64 420.46 442.77 430.95 442.77 428.36 250.94 451.36 238.26 438.21 243.12 440.85 235.21 434.56 244.47 428.29 246.8 427.84 220.8 450.68 190.46 438.44 202.7 440.51 194.19 434.65 206.48 427.71 213.43 427.01 172.82 424.52 232.04 402.88 209.1 414.77 225.27 403.55 224.02" style="fill: rgb(120, 120, 120); transform-origin: 427.12px 307.795px;" id="elb05szsngmh5" class="animable"></polygon><g id="elu2bfgmvglca" class="animable" style="transform-origin: 427.9px 176.46px;"><path d="M450.9,172.95s.4,3.99-1.78,6.92c-2.18,2.93-6.12,3.69-6.12,3.69,0,0-.4-3.99,1.78-6.92,2.18-2.93,6.12-3.69,6.12-3.69Z" style="fill: rgb(255, 255, 255); transform-origin: 446.95px 178.255px;" id="eljycdfvfdnf" class="animable"></path><path d="M463.99,191.34s.4,3.99-1.78,6.92c-2.18,2.93-6.12,3.69-6.12,3.69,0,0-.4-3.99,1.78-6.92,2.18-2.93,6.12-3.69,6.12-3.69Z" style="fill: rgb(255, 255, 255); transform-origin: 460.04px 196.645px;" id="elslbx48l0maq" class="animable"></path><path d="M463.98,227.14s-.96,3.89-4,5.92c-3.04,2.02-7,1.41-7,1.41,0,0,.96-3.89,4-5.92,3.04-2.02,7-1.41,7-1.41Z" style="fill: rgb(255, 255, 255); transform-origin: 458.48px 230.805px;" id="el840vrcpl6cq" class="animable"></path><path d="M392.1,227.14s.96,3.89,4,5.92c3.04,2.02,7,1.41,7,1.41,0,0-.96-3.89-4-5.92-3.04-2.02-7-1.41-7-1.41Z" style="fill: rgb(255, 255, 255); transform-origin: 397.6px 230.805px;" id="eldqo9zt2qs6" class="animable"></path><path d="M448.87,212.28s.4,3.99-1.78,6.92c-2.18,2.93-6.12,3.69-6.12,3.69,0,0-.4-3.99,1.78-6.92,2.18-2.93,6.12-3.69,6.12-3.69Z" style="fill: rgb(255, 255, 255); transform-origin: 444.92px 217.585px;" id="elw8tt5vkmbu" class="animable"></path><path d="M445.47,152.94s.4,3.99-1.78,6.92c-2.18,2.93-6.12,3.69-6.12,3.69,0,0-.4-3.99,1.78-6.92,2.18-2.93,6.12-3.69,6.12-3.69Z" style="fill: rgb(255, 255, 255); transform-origin: 441.52px 158.245px;" id="el61j840nwje9" class="animable"></path><path d="M437.68,168.2s.4,3.99-1.78,6.92c-2.18,2.93-6.12,3.69-6.12,3.69,0,0-.4-3.99,1.78-6.92,2.18-2.93,6.12-3.69,6.12-3.69Z" style="fill: rgb(255, 255, 255); transform-origin: 433.73px 173.505px;" id="elu23kyeva4" class="animable"></path><path d="M456.19,157.09s.4,3.99-1.78,6.92c-2.18,2.93-6.12,3.69-6.12,3.69,0,0-.4-3.99,1.78-6.92,2.18-2.93,6.12-3.69,6.12-3.69Z" style="fill: rgb(255, 255, 255); transform-origin: 452.24px 162.395px;" id="el2s1sfhnjenx" class="animable"></path><path d="M396.03,157.09s-.4,3.99,1.78,6.92c2.18,2.93,6.12,3.69,6.12,3.69,0,0,.4-3.99-1.78-6.92-2.18-2.93-6.12-3.69-6.12-3.69Z" style="fill: rgb(255, 255, 255); transform-origin: 399.98px 162.395px;" id="elykd7d773hna" class="animable"></path><path d="M447.17,134.3s.4,3.99-1.78,6.92c-2.18,2.93-6.12,3.69-6.12,3.69,0,0-.4-3.99,1.78-6.92,2.18-2.93,6.12-3.69,6.12-3.69Z" style="fill: rgb(255, 255, 255); transform-origin: 443.22px 139.605px;" id="elnt8batuakep" class="animable"></path><path d="M443.34,114.49s1.39,3.76,.02,7.14c-1.37,3.38-5,5.11-5,5.11,0,0-1.39-3.76-.02-7.14,1.38-3.38,5-5.11,5-5.11Z" style="fill: rgb(255, 255, 255); transform-origin: 440.85px 120.615px;" id="ela8cvus8k1e9" class="animable"></path><path d="M415.88,109.31s3.55,1.86,4.8,5.29c1.24,3.43-.29,7.14-.29,7.14,0,0-3.55-1.86-4.8-5.29-1.25-3.43,.29-7.14,.29-7.14Z" style="fill: rgb(255, 255, 255); transform-origin: 418.133px 115.525px;" id="el3cgn9xf4no6" class="animable"></path><path d="M428.68,133s2.53,3.11,2.32,6.76c-.21,3.65-3.08,6.45-3.08,6.45,0,0-2.53-3.11-2.32-6.76,.21-3.65,3.08-6.45,3.08-6.45Z" style="fill: rgb(255, 255, 255); transform-origin: 428.3px 139.605px;" id="el6deqtnp11lq" class="animable"></path><path d="M428.01,97.74s2.53,3.11,2.32,6.76c-.21,3.65-3.08,6.44-3.08,6.44,0,0-2.53-3.11-2.32-6.76s3.08-6.45,3.08-6.45Z" style="fill: rgb(255, 255, 255); transform-origin: 427.63px 104.335px;" id="elhir990eqmrp" class="animable"></path><path d="M399.27,172.95s-.4,3.99,1.78,6.92c2.18,2.93,6.12,3.69,6.12,3.69,0,0,.4-3.99-1.78-6.92-2.18-2.93-6.12-3.69-6.12-3.69Z" style="fill: rgb(255, 255, 255); transform-origin: 403.22px 178.255px;" id="eld13lpgqtytp" class="animable"></path><path d="M391.81,194.65s-.4,3.99,1.78,6.92c2.18,2.93,6.12,3.69,6.12,3.69,0,0,.4-3.99-1.78-6.92-2.18-2.93-6.12-3.69-6.12-3.69Z" style="fill: rgb(255, 255, 255); transform-origin: 395.76px 199.955px;" id="el7o12hvcu9w5" class="animable"></path><path d="M411.61,202.52s-.4,3.99,1.78,6.92c2.18,2.93,6.12,3.69,6.12,3.69,0,0,.4-3.99-1.78-6.92-2.18-2.93-6.12-3.69-6.12-3.69Z" style="fill: rgb(255, 255, 255); transform-origin: 415.56px 207.825px;" id="el9gy4h8nq2x8" class="animable"></path><path d="M417.02,172.46s-1.53,3.71-.28,7.14c1.25,3.43,4.81,5.29,4.81,5.29,0,0,1.53-3.71,.28-7.14-1.25-3.43-4.81-5.28-4.81-5.28Z" style="fill: rgb(255, 255, 255); transform-origin: 419.285px 178.675px;" id="el3mo63992zkh" class="animable"></path><path d="M403,252.46s4.01,.07,6.75-2.34c2.74-2.41,3.17-6.4,3.17-6.4,0,0-4.01-.07-6.75,2.34-2.74,2.41-3.17,6.4-3.17,6.4Z" style="fill: rgb(255, 255, 255); transform-origin: 407.96px 248.09px;" id="elulqh5233iae" class="animable"></path><path d="M441.47,248.08s1.09,3.86,4.19,5.78c3.1,1.93,7.04,1.19,7.04,1.19,0,0-1.09-3.86-4.19-5.78-3.1-1.93-7.04-1.19-7.04-1.19Z" style="fill: rgb(255, 255, 255); transform-origin: 447.085px 251.565px;" id="elno89ly5chnq" class="animable"></path><path d="M407.47,152.94s-.4,3.99,1.78,6.92c2.18,2.93,6.12,3.69,6.12,3.69,0,0,.4-3.99-1.78-6.92-2.18-2.93-6.12-3.69-6.12-3.69Z" style="fill: rgb(255, 255, 255); transform-origin: 411.42px 158.245px;" id="el56orr4uu0ys" class="animable"></path><path d="M407.4,135.31s-.4,3.99,1.78,6.92c2.18,2.93,6.12,3.69,6.12,3.69,0,0,.4-3.99-1.78-6.92-2.18-2.93-6.12-3.69-6.12-3.69Z" style="fill: rgb(255, 255, 255); transform-origin: 411.35px 140.615px;" id="el3p717ol3cjl" class="animable"></path></g></g><g id="elalkhn4ug6r9" class="animable" style="transform-origin: 232.29px 302.395px;"><path d="M265.46,273.41c0,25.11-14.85,45.46-33.17,45.46s-33.17-20.35-33.17-45.46,14.85-111.39,33.17-111.39,33.17,86.29,33.17,111.39Z" style="fill: rgb(1, 126, 255); transform-origin: 232.29px 240.445px;" id="elkpw21h750xl" class="animable"></path><g id="el7ren04jo0t3"><path d="M265.46,273.41c0,25.11-14.85,45.46-33.17,45.46s-33.17-20.35-33.17-45.46,14.85-111.39,33.17-111.39,33.17,86.29,33.17,111.39Z" style="fill: rgb(255, 255, 255); opacity: 0.38; transform-origin: 232.29px 240.445px;" class="animable"></path></g><polygon points="214.37 275.67 224.95 279.36 230.19 286.48 229.27 308.29 223.18 304.16 229.08 312.81 227.29 442.77 235.3 442.77 233.32 296.23 250.89 286.54 240.84 290.26 242.86 284.21 238.06 291.29 233.26 293.06 232.92 273.21 250.37 250.02 241.02 259.38 242.6 252.87 238.13 262.27 232.82 267.57 232.29 236.55 230.39 281.79 213.85 264.27 222.93 276.62 214.37 275.67" style="fill: rgb(120, 120, 120); transform-origin: 232.37px 339.66px;" id="el8o1wgfr6fee" class="animable"></polygon><g id="elxusdbz0jja7" class="animable" style="transform-origin: 232.97px 239.337px;"><path d="M250.54,236.65s.31,3.05-1.36,5.28c-1.67,2.24-4.67,2.82-4.67,2.82,0,0-.31-3.05,1.36-5.28,1.67-2.24,4.67-2.82,4.67-2.82Z" style="fill: rgb(255, 255, 255); transform-origin: 247.525px 240.7px;" id="el2bgj61bfaig" class="animable"></path><path d="M260.54,250.7s.31,3.05-1.36,5.29c-1.67,2.24-4.67,2.82-4.67,2.82,0,0-.31-3.05,1.36-5.28,1.67-2.24,4.67-2.82,4.67-2.82Z" style="fill: rgb(255, 255, 255); transform-origin: 257.525px 254.755px;" id="elx88arv0pzc" class="animable"></path><path d="M260.53,278.05s-.74,2.97-3.06,4.52c-2.32,1.55-5.35,1.08-5.35,1.08,0,0,.74-2.97,3.06-4.52,2.32-1.55,5.35-1.08,5.35-1.08Z" style="fill: rgb(255, 255, 255); transform-origin: 256.325px 280.85px;" id="elc09ylq15l8m" class="animable"></path><path d="M205.62,278.05s.74,2.97,3.06,4.52c2.32,1.55,5.35,1.08,5.35,1.08,0,0-.74-2.97-3.06-4.52-2.32-1.55-5.35-1.08-5.35-1.08Z" style="fill: rgb(255, 255, 255); transform-origin: 209.825px 280.85px;" id="elclnwwqqcigu" class="animable"></path><path d="M248.98,266.69s.31,3.05-1.36,5.28c-1.67,2.24-4.67,2.82-4.67,2.82,0,0-.31-3.05,1.36-5.28s4.67-2.82,4.67-2.82Z" style="fill: rgb(255, 255, 255); transform-origin: 245.965px 270.74px;" id="elst89wcd0c5" class="animable"></path><path d="M246.39,221.37s.31,3.05-1.36,5.28c-1.67,2.24-4.67,2.82-4.67,2.82,0,0-.31-3.05,1.36-5.28,1.67-2.24,4.67-2.82,4.67-2.82Z" style="fill: rgb(255, 255, 255); transform-origin: 243.375px 225.42px;" id="elhzj8pav2xcq" class="animable"></path><path d="M240.44,233.02s.31,3.05-1.36,5.28c-1.67,2.24-4.67,2.82-4.67,2.82,0,0-.31-3.05,1.36-5.28,1.67-2.24,4.67-2.82,4.67-2.82Z" style="fill: rgb(255, 255, 255); transform-origin: 237.425px 237.07px;" id="elt5fa9qyeszl" class="animable"></path><path d="M254.58,224.54s.31,3.05-1.36,5.28c-1.67,2.24-4.67,2.82-4.67,2.82,0,0-.31-3.05,1.36-5.28,1.67-2.24,4.67-2.82,4.67-2.82Z" style="fill: rgb(255, 255, 255); transform-origin: 251.565px 228.59px;" id="eltf8azf1oyn" class="animable"></path><path d="M208.62,224.54s-.31,3.05,1.36,5.28c1.67,2.24,4.67,2.82,4.67,2.82,0,0,.31-3.05-1.36-5.28-1.67-2.24-4.67-2.82-4.67-2.82Z" style="fill: rgb(255, 255, 255); transform-origin: 211.635px 228.59px;" id="el19niy8ymo7" class="animable"></path><path d="M247.69,207.12s.31,3.05-1.36,5.28c-1.67,2.24-4.67,2.82-4.67,2.82,0,0-.31-3.05,1.36-5.28,1.67-2.24,4.67-2.82,4.67-2.82Z" style="fill: rgb(255, 255, 255); transform-origin: 244.675px 211.17px;" id="el9qluexsdl5s" class="animable"></path><path d="M244.76,191.99s1.06,2.87,.01,5.46c-1.05,2.58-3.82,3.9-3.82,3.9,0,0-1.06-2.87-.01-5.46,1.05-2.58,3.82-3.9,3.82-3.9Z" style="fill: rgb(255, 255, 255); transform-origin: 242.855px 196.67px;" id="elfylrd3lvxhi" class="animable"></path><path d="M223.78,188.04s2.71,1.42,3.66,4.04c.95,2.62-.22,5.45-.22,5.45,0,0-2.71-1.42-3.66-4.04-.95-2.62,.22-5.45,.22-5.45Z" style="fill: rgb(255, 255, 255); transform-origin: 225.5px 192.785px;" id="elz62h0d4wgk" class="animable"></path><path d="M233.57,206.13s1.93,2.38,1.77,5.16c-.16,2.78-2.35,4.92-2.35,4.92,0,0-1.93-2.38-1.77-5.16,.16-2.78,2.35-4.92,2.35-4.92Z" style="fill: rgb(255, 255, 255); transform-origin: 233.28px 211.17px;" id="elzdazppi0yhl" class="animable"></path><path d="M233.05,179.2s1.93,2.38,1.77,5.16c-.16,2.78-2.35,4.92-2.35,4.92,0,0-1.93-2.38-1.77-5.16s2.35-4.92,2.35-4.92Z" style="fill: rgb(255, 255, 255); transform-origin: 232.76px 184.24px;" id="elolbg8c7m85r" class="animable"></path><path d="M211.09,236.65s-.31,3.05,1.36,5.28c1.67,2.24,4.67,2.82,4.67,2.82,0,0,.31-3.05-1.36-5.28-1.67-2.24-4.67-2.82-4.67-2.82Z" style="fill: rgb(255, 255, 255); transform-origin: 214.105px 240.7px;" id="elvr5ibj7p5r" class="animable"></path><path d="M205.4,253.23s-.31,3.05,1.36,5.28c1.67,2.24,4.67,2.82,4.67,2.82,0,0,.31-3.05-1.36-5.28-1.67-2.24-4.67-2.82-4.67-2.82Z" style="fill: rgb(255, 255, 255); transform-origin: 208.415px 257.28px;" id="el9tdv5tgpd6e" class="animable"></path><path d="M220.52,259.24s-.31,3.05,1.36,5.28c1.67,2.24,4.67,2.82,4.67,2.82,0,0,.31-3.05-1.36-5.29-1.67-2.24-4.67-2.82-4.67-2.82Z" style="fill: rgb(255, 255, 255); transform-origin: 223.535px 263.285px;" id="elck9nw3f7kt" class="animable"></path><path d="M224.66,236.27s-1.17,2.83-.21,5.45c.96,2.62,3.67,4.04,3.67,4.04,0,0,1.17-2.83,.21-5.45-.96-2.62-3.67-4.04-3.67-4.04Z" style="fill: rgb(255, 255, 255); transform-origin: 226.39px 241.015px;" id="elwnrqujyrhmg" class="animable"></path><path d="M213.95,297.39s3.06,.06,5.16-1.79c2.09-1.84,2.42-4.89,2.42-4.89,0,0-3.06-.06-5.16,1.79-2.09,1.84-2.42,4.89-2.42,4.89Z" style="fill: rgb(255, 255, 255); transform-origin: 217.74px 294.05px;" id="elveo1ey8g9bs" class="animable"></path><path d="M243.33,294.04s.83,2.95,3.2,4.42c2.37,1.47,5.38,.91,5.38,.91,0,0-.83-2.95-3.2-4.42-2.37-1.47-5.38-.91-5.38-.91Z" style="fill: rgb(255, 255, 255); transform-origin: 247.62px 296.705px;" id="elmre4g33lzn" class="animable"></path><path d="M217.36,221.37s-.31,3.05,1.36,5.28c1.67,2.24,4.67,2.82,4.67,2.82,0,0,.31-3.05-1.36-5.28-1.67-2.24-4.67-2.82-4.67-2.82Z" style="fill: rgb(255, 255, 255); transform-origin: 220.375px 225.42px;" id="el3fk73clfnfq" class="animable"></path><path d="M217.31,207.9s-.31,3.05,1.36,5.28c1.67,2.24,4.67,2.82,4.67,2.82,0,0,.31-3.05-1.36-5.28-1.67-2.24-4.67-2.82-4.67-2.82Z" style="fill: rgb(255, 255, 255); transform-origin: 220.325px 211.95px;" id="eloymg5eeblfe" class="animable"></path></g></g></g><g id="freepik--Plants--inject-3" class="animable animator-active animator-hidden" style="transform-origin: 365.996px 428.478px;"><g id="elkrqw8yevjw" class="animable" style="transform-origin: 365.996px 428.478px;"><g id="elgxaloz3i47h" class="animable" style="transform-origin: 653.351px 428.478px;"><g id="elh1fzlpywieo" class="animable" style="transform-origin: 657.038px 433.026px;"><path d="M664.4,427.57c-8.26,1.94-15.17,7.73-18.6,15.4h.47c3.41-7.47,10.16-13.1,18.23-14.99,.12-.03,.19-.14,.16-.26-.03-.12-.14-.19-.26-.16Z" style="fill: rgb(120, 120, 120); transform-origin: 655.233px 435.262px;" id="elq0io2wnyemo" class="animable"></path><g id="elv5owtx4nm8c" class="animable" style="transform-origin: 648.312px 438.818px;"><path d="M652.1,440.11c-2.03-1.68-5.24,1.1-5.19,1.2-.23,.39-.44,.79-.65,1.19,.45-.41,1.92-.64,3.85-.21,1.93,.36,3.98-.66,1.99-2.18Z" style="fill: rgb(120, 120, 120); transform-origin: 649.587px 441.036px;" id="elf9onp4gsr7" class="animable"></path><path d="M646.03,435.54c-2.05-1.57-3.05,1.84-1.71,3.44,1.26,1.6,1.94,2.91,1.91,3.51,.18-.42,.37-.83,.57-1.24-.1-.01,1.11-4.15-.77-5.71Z" style="fill: rgb(120, 120, 120); transform-origin: 645.401px 438.813px;" id="elmrctw112avn" class="animable"></path></g><g id="eli56a81ii3c" class="animable" style="transform-origin: 651.111px 435.185px;"><path d="M654.7,437.2c-1.72-1.99-5.32,.18-5.29,.28-.29,.34-.56,.69-.83,1.05,.5-.32,1.99-.29,3.82,.47,1.84,.69,4.02,.05,2.31-1.8Z" style="fill: rgb(120, 120, 120); transform-origin: 651.955px 437.817px;" id="elaydey8j9j2u" class="animable"></path><path d="M649.48,431.68c-1.76-1.89-3.3,1.28-2.24,3.07,.97,1.79,1.43,3.18,1.3,3.76,.25-.38,.5-.74,.76-1.11-.1-.03,1.77-3.86,.17-5.72Z" style="fill: rgb(120, 120, 120); transform-origin: 648.506px 434.804px;" id="elbpduoast8ir" class="animable"></path></g><g id="elzb28xe5g1o" class="animable" style="transform-origin: 654.407px 432.201px;"><path d="M657.74,434.78c-1.36-2.25-5.27-.72-5.25-.62-.34,.29-.67,.58-.99,.89,.55-.23,2,.06,3.67,1.11,1.69,.99,3.94,.72,2.57-1.38Z" style="fill: rgb(120, 120, 120); transform-origin: 654.832px 435.136px;" id="el0816oa7w8v7c" class="animable"></path><path d="M653.52,428.46c-1.41-2.16-3.46,.71-2.71,2.64,.66,1.92,.88,3.37,.66,3.91,.3-.33,.61-.64,.93-.95-.09-.04,2.37-3.5,1.12-5.6Z" style="fill: rgb(120, 120, 120); transform-origin: 652.262px 431.35px;" id="elggez2a2avn8" class="animable"></path></g><g id="elh3g8159h5uv" class="animable" style="transform-origin: 658.14px 429.852px;"><path d="M661.15,432.89c-.97-2.44-5.08-1.59-5.08-1.49-.38,.23-.75,.46-1.12,.71,.58-.13,1.96,.39,3.43,1.71,1.5,1.26,3.77,1.37,2.77-.93Z" style="fill: rgb(120, 120, 120); transform-origin: 658.173px 432.942px;" id="el3kcr1anttpr" class="animable"></path><path d="M658.05,425.96c-1.03-2.37-3.54,.13-3.12,2.16,.33,2.01,.31,3.47,0,3.97,.35-.27,.71-.53,1.08-.78-.09-.05,2.93-3.06,2.05-5.34Z" style="fill: rgb(120, 120, 120); transform-origin: 656.552px 428.543px;" id="el56ajrgs23av" class="animable"></path></g><g id="elt35w9bt83vd" class="animable" style="transform-origin: 661.885px 428.193px;"><path d="M664.86,431.6c-.55-2.57-4.78-2.41-4.79-2.31-.41,.16-.83,.33-1.23,.51,.59-.04,1.87,.71,3.1,2.26,1.27,1.49,3.51,1.98,2.91-.46Z" style="fill: rgb(120, 120, 120); transform-origin: 661.895px 431.274px;" id="elgx2w82xlxww" class="animable"></path><path d="M662.97,424.24c-.62-2.51-3.54-.46-3.48,1.61-.01,2.03-.29,3.47-.67,3.92,.39-.21,.79-.41,1.2-.6-.08-.07,3.43-2.53,2.95-4.93Z" style="fill: rgb(120, 120, 120); transform-origin: 660.918px 426.426px;" id="el9mv3lygsyuc" class="animable"></path></g><g id="elp7borw05m6" class="animable" style="transform-origin: 666.347px 427.214px;"><path d="M662.47,428.32c-.06-.03,3.13-2.18,5.21-2.52,2.03-.39,2.81,1.04,2.47,1.88-.32,.85-1.75,1.06-2.96,.99-1.19-.17-4.7-.41-4.72-.35Z" style="fill: rgb(120, 120, 120); transform-origin: 666.348px 427.208px;" id="elp2g6zon9wqo" class="animable"></path><path d="M662.42,428.45h-.02c-.05-.04-.08-.1-.07-.16h0c.01-.05,.02-.08,.07-.1,.51-.49,3.47-2.24,5.25-2.53,1-.19,1.86,.03,2.35,.63,.35,.43,.46,.99,.28,1.45-.44,1.15-2.48,1.12-3.1,1.08-1.16-.16-4.36-.38-4.67-.36-.03,.01-.07,.01-.1,0Zm6.75-2.43c-.34-.14-.81-.21-1.46-.08-1.64,.27-3.95,1.66-4.8,2.23,.3,.01,.77,.04,1.5,.1,.94,.07,2.17,.17,2.81,.26,1.16,.07,2.51-.13,2.8-.9,.14-.36,.05-.81-.24-1.16-.12-.14-.31-.32-.61-.44Z" style="fill: rgb(120, 120, 120); transform-origin: 666.347px 427.214px;" id="elujmdx11luma" class="animable"></path></g></g><g id="eldkvl7r5f3xq" class="animable" style="transform-origin: 642.755px 428.478px;"><path d="M643.98,442.98c-3.27-7.64-2.84-16.53,1.31-23.81,.06-.1,.02-.23-.08-.29-.1-.06-.23-.02-.29,.08-4.19,7.34-4.66,16.31-1.41,24.03h.47Z" style="fill: rgb(120, 120, 120); transform-origin: 643.349px 430.921px;" id="elk16ufebqfa" class="animable"></path><g id="elqlz3rjeazld" class="animable" style="transform-origin: 642.203px 439.42px;"><path d="M645.74,436.49c-2.61,.34-2.76,4.59-2.65,4.62,.13,.43,.27,.86,.43,1.29,0-.61,.83-1.84,2.47-2.97,1.58-1.17,2.23-3.36-.25-2.95Z" style="fill: rgb(120, 120, 120); transform-origin: 645.228px 439.415px;" id="elerytnuegior" class="animable"></path><path d="M638.26,437.83c-2.55,.43-.72,3.49,1.35,3.59,2.03,.17,3.45,.56,3.87,.99-.18-.42-.36-.84-.52-1.26-.08,.07-2.28-3.64-4.71-3.32Z" style="fill: rgb(120, 120, 120); transform-origin: 640.247px 440.11px;" id="elnshd8q3jl3q" class="animable"></path></g><g id="el1ud5ro7rph5" class="animable" style="transform-origin: 641.611px 435.299px;"><path d="M645.38,432.6c-2.63-.09-3.49,4.02-3.4,4.07,.06,.44,.12,.88,.2,1.32,.11-.59,1.14-1.65,2.94-2.48,1.76-.88,2.77-2.91,.26-2.91Z" style="fill: rgb(120, 120, 120); transform-origin: 644.43px 435.294px;" id="elta3ub3mp4a" class="animable"></path><path d="M637.78,432.67c-2.58,0-1.3,3.29,.72,3.73,1.97,.5,3.3,1.12,3.64,1.6-.11-.44-.2-.87-.29-1.31-.09,.05-1.63-3.92-4.07-4.02Z" style="fill: rgb(120, 120, 120); transform-origin: 639.239px 435.335px;" id="elfc4csdxa48j" class="animable"></path></g><g id="elxfh1chpvvwj" class="animable" style="transform-origin: 641.769px 430.487px;"><path d="M645.67,428.73c-2.57-.53-4.11,3.37-4.03,3.42-.02,.44-.03,.89-.03,1.33,.21-.56,1.4-1.43,3.31-1.93,1.88-.57,3.21-2.4,.74-2.82Z" style="fill: rgb(120, 120, 120); transform-origin: 644.309px 431.08px;" id="elntjlezq31eq" class="animable"></path><path d="M638.17,427.52c-2.54-.43-1.83,3.02,.09,3.79,1.86,.82,3.07,1.65,3.32,2.18-.03-.44-.05-.89-.07-1.33-.09,.04-.95-4.12-3.34-4.63Z" style="fill: rgb(120, 120, 120); transform-origin: 639.055px 430.487px;" id="eliwv4e2rodzq" class="animable"></path></g><g id="els26t04t5hu" class="animable" style="transform-origin: 642.673px 425.665px;"><path d="M646.61,424.95c-2.45-.95-4.62,2.64-4.55,2.71-.09,.43-.18,.87-.25,1.3,.3-.51,1.62-1.17,3.59-1.35,1.95-.24,3.57-1.83,1.2-2.66Z" style="fill: rgb(120, 120, 120); transform-origin: 644.795px 426.875px;" id="el1nz64lubk9r" class="animable"></path><path d="M639.42,422.5c-2.44-.85-2.31,2.68-.55,3.76,1.7,1.12,2.75,2.13,2.91,2.7,.04-.44,.09-.88,.16-1.32-.1,.03-.25-4.23-2.52-5.13Z" style="fill: rgb(120, 120, 120); transform-origin: 639.753px 425.665px;" id="elcmwvocuedtr" class="animable"></path></g><g id="elgwz97193ggn" class="animable" style="transform-origin: 644.293px 421.003px;"><path d="M648.18,421.36c-2.26-1.35-5.02,1.86-4.95,1.93-.16,.41-.32,.83-.46,1.25,.38-.46,1.79-.89,3.77-.74,1.96,.08,3.84-1.23,1.65-2.45Z" style="fill: rgb(120, 120, 120); transform-origin: 645.971px 422.784px;" id="el2o93j96lwmq" class="animable"></path><path d="M641.51,417.73c-2.26-1.25-2.75,2.28-1.19,3.64,1.48,1.39,2.35,2.57,2.41,3.16,.11-.43,.24-.86,.38-1.28-.11,.02,.48-4.24-1.61-5.52Z" style="fill: rgb(120, 120, 120); transform-origin: 641.262px 420.998px;" id="els5x0eclxfu" class="animable"></path></g><g id="el33rnc20mcd3" class="animable" style="transform-origin: 646.59px 417.487px;"><path d="M644.15,420.87c-.07,.02,.53-3.78,1.7-5.53,1.1-1.76,2.67-1.35,3.06-.53,.4,.81-.41,2.01-1.29,2.84-.93,.76-3.5,3.17-3.47,3.22Z" style="fill: rgb(120, 120, 120); transform-origin: 646.58px 417.489px;" id="el9z3079lih4" class="animable"></path><path d="M644.21,421h-.02c-.06,.02-.12,0-.16-.05h0s-.04-.07-.01-.12c-.01-.71,.71-4.07,1.72-5.57,.54-.86,1.29-1.34,2.06-1.29,.55,.03,1.04,.34,1.25,.78,.54,1.1-.87,2.58-1.32,3.01-.91,.74-3.25,2.93-3.44,3.17-.01,.03-.04,.06-.07,.07Zm2.82-6.6c-.33,.15-.71,.45-1.06,1.01-.92,1.38-1.47,4.03-1.63,5.04,.21-.21,.55-.53,1.09-1.03,.69-.64,1.61-1.47,2.1-1.88,.84-.8,1.61-1.93,1.25-2.67-.17-.35-.56-.59-1.01-.62-.18-.01-.44,.01-.74,.15Z" style="fill: rgb(120, 120, 120); transform-origin: 646.59px 417.487px;" id="elrxq77uxrdu" class="animable"></path></g></g></g><g id="elbr0ri9u80k" class="animable" style="transform-origin: 78.6412px 428.478px;"><g id="ellsbnoi8zzgn" class="animable" style="transform-origin: 82.3276px 433.026px;"><path d="M89.69,427.57c-8.26,1.94-15.17,7.73-18.6,15.4h.47c3.41-7.47,10.16-13.1,18.23-14.99,.12-.03,.19-.14,.16-.26-.03-.12-.14-.19-.26-.16Z" style="fill: rgb(120, 120, 120); transform-origin: 80.5235px 435.262px;" id="elqrlg7i9bsh" class="animable"></path><g id="elniexj4ik0rk" class="animable" style="transform-origin: 73.6067px 438.818px;"><path d="M77.4,440.11c-2.03-1.68-5.24,1.1-5.19,1.2-.23,.39-.44,.79-.65,1.19,.45-.41,1.92-.64,3.85-.21,1.93,.36,3.98-.66,1.99-2.18Z" style="fill: rgb(120, 120, 120); transform-origin: 74.8867px 441.036px;" id="el9au541qmt7" class="animable"></path><path d="M71.32,435.54c-2.05-1.57-3.05,1.84-1.71,3.44,1.26,1.6,1.94,2.91,1.91,3.51,.18-.42,.37-.83,.57-1.24-.1-.01,1.11-4.15-.77-5.71Z" style="fill: rgb(120, 120, 120); transform-origin: 70.6909px 438.813px;" id="elev9yjej08d9" class="animable"></path></g><g id="elpmeqmvaa73" class="animable" style="transform-origin: 76.4108px 435.185px;"><path d="M80,437.2c-1.72-1.99-5.32,.18-5.29,.28-.29,.34-.56,.69-.83,1.05,.5-.32,1.99-.29,3.82,.47,1.84,.69,4.02,.05,2.31-1.8Z" style="fill: rgb(120, 120, 120); transform-origin: 77.2547px 437.817px;" id="elhq6qkywqi5i" class="animable"></path><path d="M74.78,431.68c-1.76-1.89-3.3,1.28-2.24,3.07,.97,1.79,1.43,3.18,1.3,3.76,.25-.38,.5-.74,.76-1.11-.1-.03,1.77-3.86,.17-5.72Z" style="fill: rgb(120, 120, 120); transform-origin: 73.8061px 434.804px;" id="elr2wm1yimgnl" class="animable"></path></g><g id="eldparn6ybo9" class="animable" style="transform-origin: 79.7065px 432.201px;"><path d="M83.04,434.78c-1.36-2.25-5.27-.72-5.25-.62-.34,.29-.67,.58-.99,.89,.55-.23,2,.06,3.67,1.11,1.69,.99,3.94,.72,2.57-1.38Z" style="fill: rgb(120, 120, 120); transform-origin: 80.1316px 435.136px;" id="elio8juvmt0dd" class="animable"></path><path d="M78.82,428.46c-1.41-2.16-3.46,.71-2.71,2.64,.66,1.92,.88,3.37,.66,3.91,.3-.33,.61-.64,.93-.95-.09-.04,2.37-3.5,1.12-5.6Z" style="fill: rgb(120, 120, 120); transform-origin: 77.5624px 431.35px;" id="elfydz462wnab" class="animable"></path></g><g id="el7uovdafp088" class="animable" style="transform-origin: 83.4297px 429.852px;"><path d="M86.44,432.89c-.97-2.44-5.08-1.59-5.08-1.49-.38,.23-.75,.46-1.12,.71,.58-.13,1.96,.39,3.43,1.71,1.5,1.26,3.77,1.37,2.77-.93Z" style="fill: rgb(120, 120, 120); transform-origin: 83.4632px 432.942px;" id="elun8y69ttxfl" class="animable"></path><path d="M83.34,425.96c-1.03-2.37-3.54,.13-3.12,2.16,.33,2.01,.31,3.47,0,3.97,.35-.27,.71-.53,1.08-.78-.09-.05,2.93-3.06,2.05-5.34Z" style="fill: rgb(120, 120, 120); transform-origin: 81.842px 428.543px;" id="el4epkkvmzsdc" class="animable"></path></g><g id="el5789nltupyq" class="animable" style="transform-origin: 87.1751px 428.193px;"><path d="M90.15,431.6c-.55-2.57-4.78-2.41-4.79-2.31-.41,.16-.83,.33-1.23,.51,.59-.04,1.87,.71,3.1,2.26,1.27,1.49,3.51,1.98,2.91-.46Z" style="fill: rgb(120, 120, 120); transform-origin: 87.1851px 431.274px;" id="elwmryrpyf2yj" class="animable"></path><path d="M88.26,424.24c-.62-2.51-3.54-.46-3.48,1.61-.01,2.03-.29,3.47-.67,3.92,.39-.21,.79-.41,1.2-.6-.08-.07,3.43-2.53,2.95-4.93Z" style="fill: rgb(120, 120, 120); transform-origin: 86.2076px 426.426px;" id="elgfqbako20ph" class="animable"></path></g><g id="eljl8ia6100n" class="animable" style="transform-origin: 91.6367px 427.214px;"><path d="M87.76,428.32c-.06-.03,3.13-2.18,5.21-2.52,2.03-.39,2.81,1.04,2.47,1.88-.32,.85-1.75,1.06-2.96,.99-1.19-.17-4.7-.41-4.72-.35Z" style="fill: rgb(120, 120, 120); transform-origin: 91.6381px 427.208px;" id="el2u870gzo22v" class="animable"></path><path d="M87.71,428.45h-.02c-.05-.04-.08-.1-.07-.16h0c.01-.05,.02-.08,.07-.1,.51-.49,3.47-2.24,5.25-2.53,1-.19,1.86,.03,2.35,.63,.35,.43,.46,.99,.28,1.45-.44,1.15-2.48,1.12-3.1,1.08-1.16-.16-4.36-.38-4.67-.36-.03,.01-.07,.01-.1,0Zm6.75-2.43c-.34-.14-.81-.21-1.46-.08-1.64,.27-3.95,1.66-4.8,2.23,.3,.01,.77,.04,1.5,.1,.94,.07,2.17,.17,2.81,.26,1.16,.07,2.51-.13,2.8-.9,.14-.36,.05-.81-.24-1.16-.12-.14-.31-.32-.61-.44Z" style="fill: rgb(120, 120, 120); transform-origin: 91.6367px 427.214px;" id="elxfvbmcelnz" class="animable"></path></g></g><g id="elwlshsd4i6se" class="animable" style="transform-origin: 68.05px 428.478px;"><path d="M69.28,442.98c-3.27-7.64-2.84-16.53,1.31-23.81,.06-.1,.02-.23-.08-.29-.1-.06-.23-.02-.29,.08-4.19,7.34-4.66,16.31-1.41,24.03h.47Z" style="fill: rgb(120, 120, 120); transform-origin: 68.6493px 430.921px;" id="eli85t8ljqle" class="animable"></path><g id="elu1x8f2908c8" class="animable" style="transform-origin: 67.4917px 439.42px;"><path d="M71.03,436.49c-2.61,.34-2.76,4.59-2.65,4.62,.13,.43,.27,.86,.43,1.29,0-.61,.83-1.84,2.47-2.97,1.58-1.17,2.23-3.36-.25-2.95Z" style="fill: rgb(120, 120, 120); transform-origin: 70.5181px 439.415px;" id="elviai60ru9e" class="animable"></path><path d="M63.55,437.83c-2.55,.43-.73,3.49,1.35,3.59,2.03,.17,3.45,.56,3.87,.99-.18-.42-.36-.84-.52-1.26-.08,.07-2.28-3.64-4.71-3.32Z" style="fill: rgb(120, 120, 120); transform-origin: 65.5361px 440.11px;" id="el42i3s2it7xy" class="animable"></path></g><g id="elaiee25shhdu" class="animable" style="transform-origin: 66.9013px 435.299px;"><path d="M70.67,432.6c-2.63-.09-3.49,4.02-3.4,4.07,.06,.44,.12,.88,.2,1.32,.11-.59,1.14-1.65,2.94-2.48,1.76-.88,2.77-2.91,.26-2.91Z" style="fill: rgb(120, 120, 120); transform-origin: 69.7196px 435.294px;" id="elfrwncsx2cuc" class="animable"></path><path d="M63.07,432.67c-2.58,0-1.3,3.29,.72,3.73,1.97,.5,3.3,1.12,3.64,1.6-.11-.44-.2-.87-.29-1.31-.09,.05-1.63-3.92-4.07-4.02Z" style="fill: rgb(120, 120, 120); transform-origin: 64.5285px 435.335px;" id="elampppnlctz" class="animable"></path></g><g id="elrnjs0sn40ub" class="animable" style="transform-origin: 67.064px 430.487px;"><path d="M70.97,428.73c-2.57-.53-4.11,3.37-4.03,3.42-.02,.44-.03,.89-.03,1.33,.21-.56,1.4-1.43,3.31-1.93,1.88-.57,3.21-2.4,.74-2.82Z" style="fill: rgb(120, 120, 120); transform-origin: 69.6094px 431.08px;" id="elyexbo3gj4pn" class="animable"></path><path d="M63.46,427.52c-2.54-.43-1.83,3.02,.09,3.79,1.86,.82,3.07,1.65,3.32,2.18-.03-.44-.06-.89-.07-1.33-.09,.04-.95-4.12-3.34-4.63Z" style="fill: rgb(120, 120, 120); transform-origin: 64.3446px 430.487px;" id="eld6e9xa94tme" class="animable"></path></g><g id="el9r1rx8r076n" class="animable" style="transform-origin: 67.9627px 425.665px;"><path d="M71.9,424.95c-2.45-.95-4.62,2.64-4.55,2.71-.09,.43-.18,.87-.25,1.3,.3-.51,1.62-1.17,3.59-1.35,1.95-.24,3.57-1.83,1.2-2.66Z" style="fill: rgb(120, 120, 120); transform-origin: 70.0846px 426.875px;" id="elol0hsihigp" class="animable"></path><path d="M64.71,422.5c-2.44-.85-2.31,2.68-.55,3.76,1.7,1.12,2.75,2.13,2.91,2.7,.04-.44,.09-.88,.16-1.32-.1,.03-.25-4.23-2.52-5.13Z" style="fill: rgb(120, 120, 120); transform-origin: 65.043px 425.665px;" id="elw3dnv2x0t3" class="animable"></path></g><g id="elubcrscc4o7" class="animable" style="transform-origin: 69.5882px 421.003px;"><path d="M73.48,421.36c-2.26-1.35-5.02,1.86-4.95,1.93-.16,.41-.32,.83-.46,1.25,.38-.46,1.79-.89,3.77-.74,1.96,.08,3.84-1.23,1.65-2.45Z" style="fill: rgb(120, 120, 120); transform-origin: 71.2714px 422.784px;" id="elip5kigb49p" class="animable"></path><path d="M66.8,417.73c-2.26-1.25-2.75,2.28-1.19,3.64,1.48,1.39,2.35,2.57,2.41,3.16,.11-.43,.24-.86,.38-1.28-.11,.02,.48-4.24-1.61-5.52Z" style="fill: rgb(120, 120, 120); transform-origin: 66.5518px 420.998px;" id="eln9n0ld67apj" class="animable"></path></g><g id="elwrv5zzvkgff" class="animable" style="transform-origin: 71.8901px 417.487px;"><path d="M69.45,420.87c-.07,.02,.53-3.78,1.7-5.53,1.1-1.76,2.67-1.35,3.06-.53,.4,.81-.41,2.01-1.29,2.84-.93,.76-3.5,3.17-3.47,3.22Z" style="fill: rgb(120, 120, 120); transform-origin: 71.8798px 417.489px;" id="elie5e8t7jm8" class="animable"></path><path d="M69.51,421h-.02c-.06,.02-.12,0-.16-.05h0s-.04-.07-.01-.12c-.01-.71,.71-4.07,1.72-5.57,.54-.86,1.29-1.34,2.06-1.29,.55,.03,1.04,.34,1.25,.78,.54,1.1-.87,2.58-1.32,3.01-.91,.74-3.25,2.93-3.44,3.17-.01,.03-.04,.06-.07,.07Zm2.82-6.6c-.33,.15-.71,.45-1.06,1.01-.92,1.38-1.47,4.03-1.63,5.04,.21-.21,.55-.53,1.09-1.03,.69-.64,1.61-1.47,2.1-1.88,.84-.8,1.61-1.93,1.25-2.67-.17-.35-.56-.59-1.01-.62-.18-.01-.44,.01-.74,.15Z" style="fill: rgb(120, 120, 120); transform-origin: 71.8901px 417.487px;" id="el67vmi7h7pcr" class="animable"></path></g></g></g><g id="eluvcq6so35t" class="animable" style="transform-origin: 379.955px 428.478px;"><g id="eldeit1r3xagh" class="animable" style="transform-origin: 396.346px 428.478px;"><g id="elxlwd0yfsbe" class="animable" style="transform-origin: 400.033px 433.026px;"><path d="M407.4,427.57c-8.26,1.94-15.17,7.73-18.6,15.4h.47c3.41-7.47,10.16-13.1,18.23-14.99,.12-.03,.19-.14,.16-.26-.03-.12-.14-.19-.26-.16Z" style="fill: rgb(120, 120, 120); transform-origin: 398.233px 435.262px;" id="el20e6kizz1qm" class="animable"></path><g id="el9xrgvr95rs" class="animable" style="transform-origin: 391.312px 438.818px;"><path d="M395.1,440.11c-2.03-1.68-5.24,1.1-5.19,1.2-.23,.39-.44,.79-.65,1.19,.45-.41,1.92-.64,3.85-.21,1.93,.36,3.98-.66,1.99-2.18Z" style="fill: rgb(120, 120, 120); transform-origin: 392.587px 441.036px;" id="el6x918d6klxp" class="animable"></path><path d="M389.03,435.54c-2.05-1.57-3.05,1.84-1.71,3.44,1.26,1.6,1.94,2.91,1.91,3.51,.18-.42,.37-.83,.57-1.24-.1-.01,1.11-4.15-.77-5.71Z" style="fill: rgb(120, 120, 120); transform-origin: 388.401px 438.813px;" id="elrqvz1jleuz" class="animable"></path></g><g id="elw6dp911l6ml" class="animable" style="transform-origin: 394.111px 435.185px;"><path d="M397.7,437.2c-1.72-1.99-5.32,.18-5.29,.28-.29,.34-.56,.69-.83,1.05,.5-.32,1.99-.29,3.82,.47,1.84,.69,4.02,.05,2.31-1.8Z" style="fill: rgb(120, 120, 120); transform-origin: 394.955px 437.817px;" id="elwci1c8unp" class="animable"></path><path d="M392.48,431.68c-1.76-1.89-3.3,1.28-2.24,3.07,.97,1.79,1.43,3.18,1.3,3.76,.25-.38,.5-.74,.76-1.11-.1-.03,1.77-3.86,.17-5.72Z" style="fill: rgb(120, 120, 120); transform-origin: 391.506px 434.804px;" id="eltba5p7u345" class="animable"></path></g><g id="ely473ueyvti" class="animable" style="transform-origin: 397.407px 432.201px;"><path d="M400.74,434.78c-1.36-2.25-5.27-.72-5.25-.62-.34,.29-.67,.58-.99,.89,.55-.23,2,.06,3.67,1.11,1.69,.99,3.94,.72,2.57-1.38Z" style="fill: rgb(120, 120, 120); transform-origin: 397.832px 435.136px;" id="elb828v9v77q7" class="animable"></path><path d="M396.52,428.46c-1.41-2.16-3.46,.71-2.71,2.64,.66,1.92,.88,3.37,.66,3.91,.3-.33,.61-.64,.93-.95-.09-.04,2.37-3.5,1.12-5.6Z" style="fill: rgb(120, 120, 120); transform-origin: 395.262px 431.35px;" id="elb3pfxlf3dy" class="animable"></path></g><g id="elvh3kggpxqo" class="animable" style="transform-origin: 401.14px 429.852px;"><path d="M404.15,432.89c-.97-2.44-5.08-1.59-5.08-1.49-.38,.23-.75,.46-1.12,.71,.58-.13,1.96,.39,3.43,1.71,1.5,1.26,3.77,1.37,2.77-.93Z" style="fill: rgb(120, 120, 120); transform-origin: 401.173px 432.942px;" id="eljekfj9x5mho" class="animable"></path><path d="M401.05,425.96c-1.03-2.37-3.54,.13-3.12,2.16,.33,2.01,.31,3.47,0,3.97,.35-.27,.71-.53,1.08-.78-.09-.05,2.93-3.06,2.05-5.34Z" style="fill: rgb(120, 120, 120); transform-origin: 399.552px 428.543px;" id="eli5x2f3dfl6m" class="animable"></path></g><g id="elndfx3h6q71r" class="animable" style="transform-origin: 404.88px 428.193px;"><path d="M407.85,431.6c-.55-2.57-4.78-2.41-4.79-2.31-.41,.16-.83,.33-1.23,.51,.59-.04,1.87,.71,3.1,2.26,1.27,1.49,3.51,1.98,2.91-.46Z" style="fill: rgb(120, 120, 120); transform-origin: 404.885px 431.274px;" id="ell17bkcfw1oe" class="animable"></path><path d="M405.97,424.24c-.62-2.51-3.54-.46-3.48,1.61-.01,2.03-.29,3.47-.67,3.92,.39-.21,.79-.41,1.2-.6-.08-.07,3.43-2.53,2.95-4.93Z" style="fill: rgb(120, 120, 120); transform-origin: 403.918px 426.426px;" id="elpgq33vi4oq" class="animable"></path></g><g id="elvy2jfyz619" class="animable" style="transform-origin: 409.337px 427.214px;"><path d="M405.47,428.32c-.06-.03,3.13-2.18,5.21-2.52,2.03-.39,2.81,1.04,2.47,1.88-.32,.85-1.75,1.06-2.96,.99-1.19-.17-4.7-.41-4.72-.35Z" style="fill: rgb(120, 120, 120); transform-origin: 409.348px 427.208px;" id="elidvr9ab7bp" class="animable"></path><path d="M405.41,428.45h-.02c-.05-.04-.08-.1-.07-.16h0c.01-.05,.02-.08,.07-.1,.51-.49,3.47-2.24,5.25-2.53,1-.19,1.86,.03,2.35,.63,.35,.43,.46,.99,.28,1.45-.44,1.15-2.48,1.12-3.1,1.08-1.16-.16-4.36-.38-4.67-.36-.03,.01-.07,.01-.1,0Zm6.75-2.43c-.34-.14-.81-.21-1.46-.08-1.64,.27-3.95,1.66-4.8,2.23,.3,.01,.77,.04,1.5,.1,.94,.07,2.17,.17,2.81,.26,1.16,.07,2.51-.13,2.8-.9,.14-.36,.05-.81-.24-1.16-.12-.14-.31-.32-.61-.44Z" style="fill: rgb(120, 120, 120); transform-origin: 409.337px 427.214px;" id="eltt3cb5av9y" class="animable"></path></g></g><g id="el069d0hav91zp" class="animable" style="transform-origin: 385.755px 428.478px;"><path d="M386.98,442.98c-3.27-7.64-2.84-16.53,1.31-23.81,.06-.1,.02-.23-.08-.29-.1-.06-.23-.02-.29,.08-4.19,7.34-4.66,16.31-1.41,24.03h.47Z" style="fill: rgb(120, 120, 120); transform-origin: 386.349px 430.921px;" id="el0lwjl2m2cab" class="animable"></path><g id="elg0xbll5fpd5" class="animable" style="transform-origin: 385.203px 439.42px;"><path d="M388.74,436.49c-2.61,.34-2.76,4.59-2.65,4.62,.13,.43,.27,.86,.43,1.29,0-.61,.83-1.84,2.47-2.97,1.58-1.17,2.23-3.36-.25-2.95Z" style="fill: rgb(120, 120, 120); transform-origin: 388.228px 439.415px;" id="elcmdqm7ydclu" class="animable"></path><path d="M381.26,437.83c-2.55,.43-.72,3.49,1.35,3.59,2.03,.17,3.45,.56,3.87,.99-.18-.42-.36-.84-.52-1.26-.08,.07-2.28-3.64-4.71-3.32Z" style="fill: rgb(120, 120, 120); transform-origin: 383.247px 440.11px;" id="elk4wabzbi98" class="animable"></path></g><g id="eles40r3i30l5" class="animable" style="transform-origin: 384.611px 435.299px;"><path d="M388.38,432.6c-2.63-.09-3.49,4.02-3.4,4.07,.06,.44,.12,.88,.2,1.32,.11-.59,1.14-1.65,2.94-2.48,1.76-.88,2.77-2.91,.26-2.91Z" style="fill: rgb(120, 120, 120); transform-origin: 387.43px 435.294px;" id="eljzljc6p2ax" class="animable"></path><path d="M380.78,432.67c-2.58,0-1.3,3.29,.72,3.73,1.97,.5,3.3,1.12,3.64,1.6-.11-.44-.2-.87-.29-1.31-.09,.05-1.63-3.92-4.07-4.02Z" style="fill: rgb(120, 120, 120); transform-origin: 382.239px 435.335px;" id="elucgc3x7z4mg" class="animable"></path></g><g id="elbn8xu3f9ivc" class="animable" style="transform-origin: 384.769px 430.487px;"><path d="M388.67,428.73c-2.57-.53-4.11,3.37-4.03,3.42-.02,.44-.03,.89-.03,1.33,.21-.56,1.4-1.43,3.31-1.93,1.88-.57,3.21-2.4,.74-2.82Z" style="fill: rgb(120, 120, 120); transform-origin: 387.309px 431.08px;" id="el05osm9mszrsh" class="animable"></path><path d="M381.17,427.52c-2.54-.43-1.83,3.02,.09,3.79,1.86,.82,3.07,1.65,3.32,2.18-.03-.44-.05-.89-.07-1.33-.09,.04-.95-4.12-3.34-4.63Z" style="fill: rgb(120, 120, 120); transform-origin: 382.055px 430.487px;" id="elemn292xk7ov" class="animable"></path></g><g id="elu2tcxh35z38" class="animable" style="transform-origin: 385.668px 425.665px;"><path d="M389.61,424.95c-2.45-.95-4.62,2.64-4.55,2.71-.09,.43-.18,.87-.25,1.3,.3-.51,1.62-1.17,3.59-1.35,1.95-.24,3.57-1.83,1.2-2.66Z" style="fill: rgb(120, 120, 120); transform-origin: 387.795px 426.875px;" id="el6dtefxguzdr" class="animable"></path><path d="M382.41,422.5c-2.44-.85-2.31,2.68-.55,3.76,1.7,1.12,2.75,2.13,2.91,2.7,.04-.44,.09-.88,.16-1.32-.1,.03-.25-4.23-2.52-5.13Z" style="fill: rgb(120, 120, 120); transform-origin: 382.743px 425.665px;" id="el9bnfdjimtnc" class="animable"></path></g><g id="el744po0gt0tt" class="animable" style="transform-origin: 387.288px 421.003px;"><path d="M391.18,421.36c-2.26-1.35-5.02,1.86-4.95,1.93-.16,.41-.32,.83-.46,1.25,.38-.46,1.79-.89,3.77-.74,1.96,.08,3.84-1.23,1.65-2.45Z" style="fill: rgb(120, 120, 120); transform-origin: 388.971px 422.784px;" id="elpabklf7ae8" class="animable"></path><path d="M384.5,417.73c-2.26-1.25-2.75,2.28-1.19,3.64,1.48,1.39,2.35,2.57,2.41,3.16,.11-.43,.24-.86,.38-1.28-.11,.02,.48-4.24-1.61-5.52Z" style="fill: rgb(120, 120, 120); transform-origin: 384.252px 420.998px;" id="elwe6pq83pvpl" class="animable"></path></g><g id="el2z3terwe6d9" class="animable" style="transform-origin: 389.59px 417.487px;"><path d="M387.15,420.87c-.07,.02,.53-3.78,1.7-5.53,1.1-1.76,2.67-1.35,3.06-.53,.4,.81-.41,2.01-1.29,2.84-.93,.76-3.5,3.17-3.47,3.22Z" style="fill: rgb(120, 120, 120); transform-origin: 389.58px 417.489px;" id="eld1959c1nv9e" class="animable"></path><path d="M387.21,421h-.02c-.06,.02-.12,0-.16-.05h0s-.04-.07-.01-.12c-.01-.71,.71-4.07,1.72-5.57,.54-.86,1.29-1.34,2.06-1.29,.55,.03,1.04,.34,1.25,.78,.54,1.1-.87,2.58-1.32,3.01-.91,.74-3.25,2.93-3.44,3.17-.01,.03-.04,.06-.07,.07Zm2.82-6.6c-.33,.15-.71,.45-1.06,1.01-.92,1.38-1.47,4.03-1.63,5.04,.21-.21,.55-.53,1.09-1.03,.69-.64,1.61-1.47,2.1-1.88,.84-.8,1.61-1.93,1.25-2.67-.17-.35-.56-.59-1.01-.62-.18-.01-.44,.01-.74,.15Z" style="fill: rgb(120, 120, 120); transform-origin: 389.59px 417.487px;" id="elqkhhppsv3c8" class="animable"></path></g></g></g><g id="eljq2ct288mx" class="animable" style="transform-origin: 363.569px 428.478px;"><g id="elh16k5vtqkxg" class="animable" style="transform-origin: 359.882px 433.026px;"><path d="M352.52,427.57c8.26,1.94,15.17,7.73,18.6,15.4h-.47c-3.41-7.47-10.16-13.1-18.23-14.99-.12-.03-.19-.14-.16-.26,.03-.12,.14-.19,.26-.16Z" style="fill: rgb(120, 120, 120); transform-origin: 361.687px 435.262px;" id="el9ouhghpttes" class="animable"></path><g id="elyk8ghmz63lf" class="animable" style="transform-origin: 368.603px 438.818px;"><path d="M364.81,440.11c2.03-1.68,5.24,1.1,5.19,1.2,.23,.39,.44,.79,.65,1.19-.45-.41-1.92-.64-3.85-.21-1.93,.36-3.98-.66-1.99-2.18Z" style="fill: rgb(120, 120, 120); transform-origin: 367.323px 441.036px;" id="eln9yvwdhyaxc" class="animable"></path><path d="M370.89,435.54c2.05-1.57,3.05,1.84,1.71,3.44-1.26,1.6-1.94,2.91-1.91,3.51-.18-.42-.37-.83-.57-1.24,.1-.01-1.11-4.15,.77-5.71Z" style="fill: rgb(120, 120, 120); transform-origin: 371.519px 438.813px;" id="elmfh2o4tv2g" class="animable"></path></g><g id="ele1g9pbvq6dw" class="animable" style="transform-origin: 365.799px 435.185px;"><path d="M362.21,437.2c1.72-1.99,5.32,.18,5.29,.28,.29,.34,.56,.69,.83,1.05-.5-.32-1.99-.29-3.82,.47-1.84,.69-4.02,.05-2.31-1.8Z" style="fill: rgb(120, 120, 120); transform-origin: 364.955px 437.817px;" id="elv1za0ax8sds" class="animable"></path><path d="M367.43,431.68c1.76-1.89,3.3,1.28,2.24,3.07-.97,1.79-1.43,3.18-1.3,3.76-.25-.38-.5-.74-.76-1.11,.1-.03-1.77-3.86-.17-5.72Z" style="fill: rgb(120, 120, 120); transform-origin: 368.404px 434.804px;" id="elbyrq1v385si" class="animable"></path></g><g id="elrvm5h49zvz" class="animable" style="transform-origin: 362.503px 432.201px;"><path d="M359.17,434.78c1.36-2.25,5.27-.72,5.25-.62,.34,.29,.67,.58,.99,.89-.55-.23-2,.06-3.67,1.11-1.69,.99-3.94,.72-2.57-1.38Z" style="fill: rgb(120, 120, 120); transform-origin: 362.078px 435.136px;" id="el1pgsdd9p1i5" class="animable"></path><path d="M363.39,428.46c1.41-2.16,3.46,.71,2.71,2.64-.66,1.92-.88,3.37-.66,3.91-.3-.33-.61-.64-.93-.95,.09-.04-2.37-3.5-1.12-5.6Z" style="fill: rgb(120, 120, 120); transform-origin: 364.648px 431.35px;" id="elwx2rook806j" class="animable"></path></g><g id="elah9ke7vwcum" class="animable" style="transform-origin: 358.775px 429.852px;"><path d="M355.76,432.89c.97-2.44,5.08-1.59,5.08-1.49,.38,.23,.75,.46,1.12,.71-.58-.13-1.96,.39-3.43,1.71-1.5,1.26-3.77,1.37-2.77-.93Z" style="fill: rgb(120, 120, 120); transform-origin: 358.737px 432.942px;" id="el63vyq4l0kz8" class="animable"></path><path d="M358.87,425.96c1.03-2.37,3.54,.13,3.12,2.16-.33,2.01-.31,3.47,0,3.97-.35-.27-.71-.53-1.08-.78,.09-.05-2.93-3.06-2.05-5.34Z" style="fill: rgb(120, 120, 120); transform-origin: 360.368px 428.543px;" id="elwh2byl1nzz8" class="animable"></path></g><g id="el2fkwlauopmw" class="animable" style="transform-origin: 355.03px 428.193px;"><path d="M352.06,431.6c.55-2.57,4.78-2.41,4.79-2.31,.41,.16,.83,.33,1.23,.51-.59-.04-1.87,.71-3.1,2.26-1.27,1.49-3.51,1.98-2.91-.46Z" style="fill: rgb(120, 120, 120); transform-origin: 355.025px 431.274px;" id="el28znkvptyn" class="animable"></path><path d="M353.94,424.24c.62-2.51,3.54-.46,3.48,1.61,.01,2.03,.29,3.47,.67,3.92-.39-.21-.79-.41-1.2-.6,.08-.07-3.43-2.53-2.95-4.93Z" style="fill: rgb(120, 120, 120); transform-origin: 355.992px 426.426px;" id="el4wur5rhdvwj" class="animable"></path></g><g id="el6gzbra36evf" class="animable" style="transform-origin: 350.573px 427.214px;"><path d="M354.44,428.32c.06-.03-3.13-2.18-5.21-2.52-2.03-.39-2.81,1.04-2.47,1.88,.32,.85,1.75,1.06,2.96,.99,1.19-.17,4.7-.41,4.72-.35Z" style="fill: rgb(120, 120, 120); transform-origin: 350.562px 427.208px;" id="el7x4lmc9qaov" class="animable"></path><path d="M354.5,428.45h.02c.05-.04,.08-.1,.07-.16h0c-.01-.05-.02-.08-.07-.1-.51-.49-3.47-2.24-5.25-2.53-1-.19-1.86,.03-2.35,.63-.35,.43-.46,.99-.28,1.45,.44,1.15,2.48,1.12,3.1,1.08,1.16-.16,4.36-.38,4.67-.36,.03,.01,.07,.01,.1,0Zm-6.75-2.43c.34-.14,.81-.21,1.46-.08,1.64,.27,3.95,1.66,4.8,2.23-.3,.01-.77,.04-1.5,.1-.94,.07-2.17,.17-2.81,.26-1.16,.07-2.51-.13-2.8-.9-.14-.36-.05-.81,.24-1.16,.12-.14,.31-.32,.61-.44Z" style="fill: rgb(120, 120, 120); transform-origin: 350.573px 427.214px;" id="elcyuyhatyqbf" class="animable"></path></g></g><g id="el5tqwgbzu4ab" class="animable" style="transform-origin: 374.16px 428.478px;"><path d="M372.93,442.98c3.27-7.64,2.84-16.53-1.31-23.81-.06-.1-.02-.23,.08-.29,.1-.06,.23-.02,.29,.08,4.19,7.34,4.66,16.31,1.41,24.03h-.47Z" style="fill: rgb(120, 120, 120); transform-origin: 373.561px 430.921px;" id="eloxv56rrwe4" class="animable"></path><g id="elcp8cp8d4tcg" class="animable" style="transform-origin: 374.717px 439.42px;"><path d="M371.18,436.49c2.61,.34,2.76,4.59,2.65,4.62-.13,.43-.27,.86-.43,1.29,0-.61-.83-1.84-2.47-2.97-1.58-1.17-2.23-3.36,.25-2.95Z" style="fill: rgb(120, 120, 120); transform-origin: 371.692px 439.415px;" id="el7pxt1m36czw" class="animable"></path><path d="M378.66,437.83c2.55,.43,.72,3.49-1.35,3.59-2.03,.17-3.45,.56-3.87,.99,.18-.42,.36-.84,.52-1.26,.08,.07,2.28-3.64,4.71-3.32Z" style="fill: rgb(120, 120, 120); transform-origin: 376.673px 440.11px;" id="elk45dhjt7jj8" class="animable"></path></g><g id="elcpmswvxnam6" class="animable" style="transform-origin: 375.309px 435.299px;"><path d="M371.54,432.6c2.63-.09,3.49,4.02,3.4,4.07-.06,.44-.12,.88-.2,1.32-.11-.59-1.14-1.65-2.94-2.48-1.76-.88-2.77-2.91-.26-2.91Z" style="fill: rgb(120, 120, 120); transform-origin: 372.49px 435.294px;" id="el73vespbbv0w" class="animable"></path><path d="M379.14,432.67c2.58,0,1.3,3.29-.72,3.73-1.97,.5-3.3,1.12-3.64,1.6,.11-.44,.2-.87,.29-1.31,.09,.05,1.63-3.92,4.07-4.02Z" style="fill: rgb(120, 120, 120); transform-origin: 377.681px 435.335px;" id="elubfg4erg54g" class="animable"></path></g><g id="elvjbycnajtkd" class="animable" style="transform-origin: 375.146px 430.487px;"><path d="M371.24,428.73c2.57-.53,4.11,3.37,4.03,3.42,.02,.44,.03,.89,.03,1.33-.21-.56-1.4-1.43-3.31-1.93-1.88-.57-3.21-2.4-.74-2.82Z" style="fill: rgb(120, 120, 120); transform-origin: 372.601px 431.08px;" id="elwsl5o7umdci" class="animable"></path><path d="M378.75,427.52c2.54-.43,1.83,3.02-.09,3.79-1.86,.82-3.07,1.65-3.32,2.18,.03-.44,.05-.89,.07-1.33,.09,.04,.95-4.12,3.34-4.63Z" style="fill: rgb(120, 120, 120); transform-origin: 377.865px 430.487px;" id="elshxolbkl8s" class="animable"></path></g><g id="elv6rtl5laqpb" class="animable" style="transform-origin: 374.242px 425.665px;"><path d="M370.3,424.95c2.45-.95,4.62,2.64,4.55,2.71,.09,.43,.18,.87,.25,1.3-.3-.51-1.62-1.17-3.59-1.35-1.95-.24-3.57-1.83-1.2-2.66Z" style="fill: rgb(120, 120, 120); transform-origin: 372.115px 426.875px;" id="elswhmshcewx" class="animable"></path><path d="M377.5,422.5c2.44-.85,2.31,2.68,.55,3.76-1.7,1.12-2.75,2.13-2.91,2.7-.04-.44-.09-.88-.16-1.32,.1,.03,.25-4.23,2.52-5.13Z" style="fill: rgb(120, 120, 120); transform-origin: 377.167px 425.665px;" id="elv2or72dezan" class="animable"></path></g><g id="elwal7s4cwpkn" class="animable" style="transform-origin: 372.622px 421.003px;"><path d="M368.73,421.36c2.26-1.35,5.02,1.86,4.95,1.93,.16,.41,.32,.83,.46,1.25-.38-.46-1.79-.89-3.77-.74-1.96,.08-3.84-1.23-1.65-2.45Z" style="fill: rgb(120, 120, 120); transform-origin: 370.939px 422.784px;" id="elwcrdjd39eas" class="animable"></path><path d="M375.41,417.73c2.26-1.25,2.75,2.28,1.19,3.64-1.48,1.39-2.35,2.57-2.41,3.16-.11-.43-.24-.86-.38-1.28,.11,.02-.48-4.24,1.61-5.52Z" style="fill: rgb(120, 120, 120); transform-origin: 375.658px 420.998px;" id="el16i9xzb3rbah" class="animable"></path></g><g id="elm88m7xnnfas" class="animable" style="transform-origin: 370.32px 417.487px;"><path d="M372.76,420.87c.07,.02-.53-3.78-1.7-5.53-1.1-1.76-2.67-1.35-3.06-.53-.4,.81,.41,2.01,1.29,2.84,.93,.76,3.5,3.17,3.47,3.22Z" style="fill: rgb(120, 120, 120); transform-origin: 370.33px 417.489px;" id="el51mr1dve3pg" class="animable"></path><path d="M372.7,421h.02c.06,.02,.12,0,.16-.05h0s.04-.07,.01-.12c.01-.71-.71-4.07-1.72-5.57-.54-.86-1.29-1.34-2.06-1.29-.55,.03-1.04,.34-1.25,.78-.54,1.1,.87,2.58,1.32,3.01,.91,.74,3.25,2.93,3.44,3.17,.01,.03,.04,.06,.07,.07Zm-2.82-6.6c.33,.15,.71,.45,1.06,1.01,.92,1.38,1.47,4.03,1.63,5.04-.21-.21-.55-.53-1.09-1.03-.69-.64-1.61-1.47-2.1-1.88-.84-.8-1.61-1.93-1.25-2.67,.17-.35,.56-.59,1.01-.62,.18-.01,.44,.01,.74,.15Z" style="fill: rgb(120, 120, 120); transform-origin: 370.32px 417.487px;" id="elrpvvqcwyzih" class="animable"></path></g></g></g></g></g></g><g id="freepik--Car--inject-3" class="animable" style="transform-origin: 380.265px 338.995px;"><g id="el2p3nbsuwwmx" class="animable" style="transform-origin: 380.265px 338.995px;"><path d="M609.9,401.56s58.44-5.45,60.13-6.39c1.69-.94,4.13-2.82,4.13-2.82l28.38,.38,.38-6.76-24.43-.38-40.03,4.13v-4.32s-1.88-27.25-22.17-43.78-31.76-18.79-59.57-17.85c-27.81,.94-58.82,43.41-63.33,51.68-4.51,8.27-6.39,9.77-6.39,9.77H210.96l-.24-8.37c-.75-25.83-18.6-48-43.68-54.24h0c-11.42-2.84-23.44-2.12-34.43,2.08l-11.67,4.45c-24.97,9.52-40.3,34.97-36.66,61.44,1.05,7.61,.93,12.61-1.66,10.8-8.08-5.64-.19,5.07,6.58,6.76,6.76,1.69,14.66,2.44,14.66,2.44H233.13l274.08-.63,102.69-8.39Z" style="fill: rgb(38, 50, 56); stroke: rgb(38, 50, 56); stroke-miterlimit: 10; transform-origin: 391.059px 365.743px;" id="el6epyujo6h3g" class="animable"></path><path d="M314.96,226.88s-95.76,63.47-98.33,63.47-4.04-1.1-5.87,.37c-1.83,1.47-3.67,2.2-3.67,2.2l-102.36,12.11s-36.69,7.34-44.03,9.54c-7.34,2.2-13.57,9.17-13.21,12.11s4.04,27.88,4.04,27.88l4.04,31.92s-2.2,11.37-.37,12.84c1.83,1.47,10.27,4.4,14.68,5.5,4.4,1.1,16.88,1.1,16.88,1.1,0,0,1.1-20.55,5.14-36.69,4.04-16.14,16.1-34.9,53.57-36.69,38.52-1.83,55.77,43.66,55.77,43.66l7.7,28.62,14.68,5.14H507.21s-1.1-31.92,5.14-44.76c6.24-12.84,23.11-27.15,43.66-29.72,20.55-2.57,37.79,3.67,46.96,7.34,9.17,3.67,19.81,28.62,21.28,36.69,1.47,8.07,3.3,8.44,3.3,8.44,0,0,66.41-3.67,70.44-6.97,4.04-3.3,9.54-18.34,10.64-39.26,1.1-20.91-.37-40.72-2.57-44.03-2.2-3.3-6.97-3.67-6.97-3.67l-83.28-5.5s-76.31-62.37-80.72-63.47c-1.82-.45-4.44-1.09-6.9-1.69-4.41-1.07-8.92-1.69-13.46-1.86l-43.11-1.58-60.17,.37s-61.64-.73-96.49,6.6Z" style="fill: rgb(1, 126, 255); stroke: rgb(38, 50, 56); stroke-miterlimit: 10; transform-origin: 378.239px 314.94px;" id="elmqmdxdhq2i9" class="animable"></path><g id="els5etsaraubr"><polygon points="693.36 311.31 190 311.31 70.96 318.5 693.36 318.5 693.36 311.31" style="fill: rgb(255, 255, 255); opacity: 0.62; transform-origin: 382.16px 314.905px;" class="animable"></polygon></g><path d="M621.31,365.57h96.21c1.78,0,3.22-1.44,3.22-3.22v-8.6c0-1.78-1.44-3.22-3.22-3.22h-102.81l6.6,15.04Z" style="fill: rgb(38, 50, 56); stroke: rgb(38, 50, 56); stroke-miterlimit: 10; transform-origin: 667.725px 358.05px;" id="eldf0428s8q7" class="animable"></path><path d="M89,371.8H43.92c-2.28,0-4.13-1.85-4.13-4.13v-6.79c0-2.28,1.85-4.13,4.13-4.13h50.17l-5.1,15.04Z" style="fill: rgb(38, 50, 56); stroke: rgb(38, 50, 56); stroke-miterlimit: 10; transform-origin: 66.94px 364.275px;" id="elxyux61mm5rr" class="animable"></path><g id="eldhc4magr7jk" class="animable" style="transform-origin: 352.385px 356.58px;"><rect x="197.56" y="353.09" width="38.16" height="6.98" style="fill: rgb(38, 50, 56); stroke: rgb(38, 50, 56); stroke-miterlimit: 10; transform-origin: 216.64px 356.58px;" id="el5h5r3mo2rh" class="animable"></rect><rect x="238.65" y="353.09" width="156.66" height="6.98" style="fill: rgb(38, 50, 56); stroke: rgb(38, 50, 56); stroke-miterlimit: 10; transform-origin: 316.98px 356.58px;" id="el73suyzaso4m" class="animable"></rect><polygon points="398.25 353.09 398.25 360.07 503.54 360.07 507.21 353.09 398.25 353.09" style="fill: rgb(38, 50, 56); stroke: rgb(38, 50, 56); stroke-miterlimit: 10; transform-origin: 452.73px 356.58px;" id="eln4pfxfhb76r" class="animable"></polygon></g><g id="el43sucrby3rv" class="animable" style="transform-origin: 280.917px 398.95px;"><path d="M69.88,404.82c4.4,1.1,16.88,1.1,16.88,1.1,0,0,.43-8.02,1.74-17.98H55.31c-.52,3.12-1.53,10.23-.11,11.37,1.83,1.47,10.27,4.4,14.68,5.5Z" style="fill: rgb(38, 50, 56); stroke: rgb(38, 50, 56); stroke-miterlimit: 10; transform-origin: 71.4868px 396.93px;" id="elbit6istsoz7" class="animable"></path><path d="M507.36,394.18H206.07l2.86,10.64,14.68,5.14H507.21s-.24-7.01,.14-15.78Z" style="fill: rgb(38, 50, 56); stroke: rgb(38, 50, 56); stroke-miterlimit: 10; transform-origin: 356.715px 402.07px;" id="elmdlrjgnczwi" class="animable"></path></g><rect x="364.13" y="309.8" width="25.68" height="4.77" style="fill: rgb(38, 50, 56); stroke: rgb(38, 50, 56); stroke-miterlimit: 10; transform-origin: 376.97px 312.185px;" id="eltoufs9njqsq" class="animable"></rect><rect x="509.78" y="309.8" width="25.68" height="4.77" style="fill: rgb(38, 50, 56); stroke: rgb(38, 50, 56); stroke-miterlimit: 10; transform-origin: 522.62px 312.185px;" id="elvkwx70rmpkp" class="animable"></rect><path d="M238.28,292.92c7.34-2.57,77.41-57.23,78.88-62.74,.42-1.59,.47-2.83,.34-3.81-.86,.17-1.71,.33-2.54,.51,0,0-95.76,63.47-98.33,63.47,0,0,14.31,5.14,21.65,2.57Z" style="fill: rgb(135, 135, 135); stroke: rgb(38, 50, 56); stroke-miterlimit: 10; transform-origin: 267.097px 260.005px;" id="elvpspd0xxnlr" class="animable"></path><path d="M608.84,288.52c1.47,.37,10.27,.37,10.27,.37l-.11-.16-3.19-.21s-76.31-62.37-80.72-63.47c0,0,5.14,5.14,9.17,8.44,4.04,3.3,63.1,54.67,64.57,55.03Z" style="fill: rgb(135, 135, 135); stroke: rgb(38, 50, 56); stroke-miterlimit: 10; transform-origin: 577.1px 256.97px;" id="el9338d8fpys" class="animable"></path><path d="M705.67,310.44c-2.52-.19-4.71,1.7-4.89,4.22l-1.14,15.4c-.19,2.52,1.7,4.71,4.22,4.89l3.33,.25c.6,.04,1.17-.04,1.71-.21,.25-9.12,.04-17.69-.49-24.35l-2.74-.2Z" style="fill: rgb(255, 255, 255); stroke: rgb(38, 50, 56); stroke-miterlimit: 10; transform-origin: 704.316px 322.818px;" id="elwoqe4dje4wp" class="animable"></path><g id="el1z55q0fvs9o" class="animable" style="transform-origin: 143.69px 393.76px;"><g id="elv6keqg2z3be"><circle cx="143.69" cy="393.76" r="49.22" style="fill: rgb(38, 50, 56); stroke: rgb(38, 50, 56); stroke-miterlimit: 10; transform-origin: 143.69px 393.76px; transform: rotate(-67.5deg);" class="animable"></circle></g><g id="elhayo4uhfxpf"><circle cx="143.69" cy="393.76" r="30.53" style="fill: rgb(255, 255, 255); stroke: rgb(38, 50, 56); stroke-miterlimit: 10; transform-origin: 143.69px 393.76px; transform: rotate(-53.35deg);" class="animable"></circle></g><g id="elwwuxsw63jsr"><circle cx="143.69" cy="393.76" r="18.01" style="fill: rgb(255, 255, 255); stroke: rgb(38, 50, 56); stroke-miterlimit: 10; transform-origin: 143.69px 393.76px; transform: rotate(-9.22deg);" class="animable"></circle></g><path d="M147.21,386.89c0-1.46-1.18-2.65-2.65-2.65s-2.65,1.18-2.65,2.65,1.18,2.65,2.65,2.65,2.65-1.18,2.65-2.65Z" style="fill: rgb(38, 50, 56); stroke: rgb(38, 50, 56); stroke-miterlimit: 10; transform-origin: 144.56px 386.89px;" id="el18bp401su61" class="animable"></path><path d="M138.24,394.11c0-1.46-1.18-2.65-2.65-2.65s-2.65,1.18-2.65,2.65,1.18,2.65,2.65,2.65,2.65-1.18,2.65-2.65Z" style="fill: rgb(38, 50, 56); stroke: rgb(38, 50, 56); stroke-miterlimit: 10; transform-origin: 135.59px 394.11px;" id="elvgb3kpeyad" class="animable"></path><path d="M153.69,396.53c0-1.46-1.18-2.65-2.65-2.65s-2.65,1.18-2.65,2.65,1.18,2.65,2.65,2.65,2.65-1.18,2.65-2.65Z" style="fill: rgb(38, 50, 56); stroke: rgb(38, 50, 56); stroke-miterlimit: 10; transform-origin: 151.04px 396.53px;" id="elx75j8io4gh9" class="animable"></path><circle cx="142.43" cy="402.33" r="2.65" style="fill: rgb(38, 50, 56); stroke: rgb(38, 50, 56); stroke-miterlimit: 10; transform-origin: 142.43px 402.33px;" id="eldvw6z0x2gwl" class="animable"></circle></g><g id="el73xlg9l2k15" class="animable" style="transform-origin: 565.02px 393.76px;"><g id="elmxmpmyyew5"><circle cx="565.02" cy="393.76" r="49.22" style="fill: rgb(38, 50, 56); stroke: rgb(38, 50, 56); stroke-miterlimit: 10; transform-origin: 565.02px 393.76px; transform: rotate(-13.63deg);" class="animable"></circle></g><g id="el684dybx9a9x"><circle cx="565.02" cy="393.76" r="30.53" style="fill: rgb(255, 255, 255); stroke: rgb(38, 50, 56); stroke-miterlimit: 10; transform-origin: 565.02px 393.76px; transform: rotate(-13.72deg);" class="animable"></circle></g><g id="ellfznuwx9rgo"><circle cx="565.02" cy="393.76" r="18.01" style="fill: rgb(255, 255, 255); stroke: rgb(38, 50, 56); stroke-miterlimit: 10; transform-origin: 565.02px 393.76px; transform: rotate(-9.17deg);" class="animable"></circle></g><path d="M568.54,386.89c0-1.46-1.18-2.65-2.65-2.65s-2.65,1.18-2.65,2.65,1.18,2.65,2.65,2.65,2.65-1.18,2.65-2.65Z" style="fill: rgb(38, 50, 56); stroke: rgb(38, 50, 56); stroke-miterlimit: 10; transform-origin: 565.89px 386.89px;" id="eluk4fytghrsk" class="animable"></path><path d="M559.57,394.11c0-1.46-1.18-2.65-2.65-2.65s-2.65,1.18-2.65,2.65,1.18,2.65,2.65,2.65,2.65-1.18,2.65-2.65Z" style="fill: rgb(38, 50, 56); stroke: rgb(38, 50, 56); stroke-miterlimit: 10; transform-origin: 556.92px 394.11px;" id="elqibbqw310r" class="animable"></path><circle cx="572.37" cy="396.53" r="2.65" style="fill: rgb(38, 50, 56); stroke: rgb(38, 50, 56); stroke-miterlimit: 10; transform-origin: 572.37px 396.53px;" id="el9w6m2ktheku" class="animable"></circle><path d="M566.4,402.33c0-1.46-1.18-2.65-2.65-2.65s-2.65,1.18-2.65,2.65,1.18,2.65,2.65,2.65,2.65-1.18,2.65-2.65Z" style="fill: rgb(38, 50, 56); stroke: rgb(38, 50, 56); stroke-miterlimit: 10; transform-origin: 563.75px 402.33px;" id="elwqkydpt2cm" class="animable"></path></g><path d="M330.05,235.69s-77,59.51-76.03,60.73,5.1,.73,5.1,.73l288.1-7.04s6.07-8.5,5.83-13.12c-.24-4.62-7.29-12.39-7.29-12.39,0,0-28.42-31.58-35.95-33.77-7.53-2.19-112.47-.73-112.47-.73l-59.03,3.64s-5.34,.73-8.26,1.94Z" style="fill: rgb(92, 92, 92); stroke: rgb(38, 50, 56); stroke-miterlimit: 10; transform-origin: 403.534px 263.435px;" id="el74xqw7qfycx" class="animable"></path><path d="M388.66,293.98l27.4-.67,11.28-63.52c-9.17,.07-17.12,.16-22.54,.22l-16.15,63.97Z" style="fill: rgb(38, 50, 56); stroke: rgb(38, 50, 56); stroke-miterlimit: 10; transform-origin: 407.995px 261.885px;" id="elt4zdcdz445" class="animable"></path><line x1="416.77" y1="232.53" x2="405.35" y2="289.86" style="fill: none; stroke: rgb(135, 135, 135); stroke-miterlimit: 10; transform-origin: 411.06px 261.195px;" id="elzn1r9p0diyq" class="animable"></line><path d="M503.55,230.21l6.73,44.59-2.85,16.28,8.75-.21-7.36-60.22c-1.14-.17-2.94-.31-5.28-.43Z" style="fill: rgb(38, 50, 56); stroke: rgb(38, 50, 56); stroke-miterlimit: 10; transform-origin: 509.86px 260.645px;" id="elw05xwzja7gg" class="animable"></path><path d="M278.55,281.6l-8.26,14.09s1.7,2.19,4.13,.73c2.43-1.46,9.96-8.02,9.96-8.02l-5.83-6.8Z" style="fill: rgb(135, 135, 135); stroke: rgb(38, 50, 56); stroke-miterlimit: 10; transform-origin: 277.335px 289.261px;" id="elwcnwtf3pafr" class="animable"></path><g id="elki5wiefgdyg"><path d="M281.6,271.36h4.2v19.43h-4.2c-1.97,0-3.58-1.6-3.58-3.58v-12.28c0-1.97,1.6-3.58,3.58-3.58Z" style="fill: rgb(135, 135, 135); stroke: rgb(38, 50, 56); stroke-miterlimit: 10; transform-origin: 281.91px 281.07px; transform: rotate(-9.41deg);" class="animable"></path></g><g id="elhpfjcybeeh4" class="animable" style="transform-origin: 308.95px 306.68px;"><path d="M357.74,227.46c-11.96,.94-23.3,2.2-27.73,3.83-11.01,4.04-81.45,65.67-81.45,65.67" style="fill: none; stroke: rgb(38, 50, 56); stroke-miterlimit: 10; transform-origin: 303.15px 262.21px;" id="elfk1s54babc" class="animable"></path><path d="M539.82,323.95c2.01-1.58,3.54-3.15,4.45-4.98,3.3-6.6,7.34-26.78,7.34-26.78,0,0,9.54-11.74,3.67-23.85-5.87-12.11-28.62-33.39-34.12-37.06-5.5-3.67-15.41-5.5-18.34-5.5s-108.23-.37-108.23-.37c0,0-13.88,.48-28.96,1.47" style="fill: none; stroke: rgb(38, 50, 56); stroke-miterlimit: 10; transform-origin: 461.41px 274.68px;" id="ele81k5segi98" class="animable"></path><path d="M462.77,387.95h36.37s4.77-34.85,17.61-46.96c7.08-6.67,13.71-10.67,18.79-14.02" style="fill: none; stroke: rgb(38, 50, 56); stroke-miterlimit: 10; transform-origin: 499.155px 357.46px;" id="el76ip4nmc8nw" class="animable"></path><line x1="248.13" y1="387.95" x2="456.22" y2="387.95" style="fill: none; stroke: rgb(38, 50, 56); stroke-miterlimit: 10; transform-origin: 352.175px 387.95px;" id="elg8tyhttyoq" class="animable"></line><path d="M236.68,321.52c-.62,14.43,.01,40.67,.87,48.08,1.1,9.54,2.57,18.34,2.57,18.34h3.53" style="fill: none; stroke: rgb(38, 50, 56); stroke-miterlimit: 10; transform-origin: 240.04px 354.73px;" id="elyapq5oa0imc" class="animable"></path><path d="M243.42,301.73s-4.04,4.4-5.87,11.01" style="fill: none; stroke: rgb(38, 50, 56); stroke-miterlimit: 10; transform-origin: 240.485px 307.235px;" id="elm5titiau99j" class="animable"></path><path d="M396.7,343.53c-.48,17.47-.65,42.21-.65,42.21" style="fill: none; stroke: rgb(38, 50, 56); stroke-miterlimit: 10; transform-origin: 396.375px 364.635px;" id="elna6e5avu80n" class="animable"></path><path d="M404.85,296.22s-6.24,24.21-7.34,31.19c-.25,1.6-.47,5.53-.65,10.64" style="fill: none; stroke: rgb(38, 50, 56); stroke-miterlimit: 10; transform-origin: 400.855px 317.135px;" id="elmuia04lc7ur" class="animable"></path><line x1="212.08" y1="300.11" x2="227" y2="298.69" style="fill: none; stroke: rgb(38, 50, 56); stroke-miterlimit: 10; transform-origin: 219.54px 299.4px;" id="el58m7c0axiil" class="animable"></line><line x1="60.71" y1="314.57" x2="202.92" y2="300.99" style="fill: none; stroke: rgb(38, 50, 56); stroke-miterlimit: 10; transform-origin: 131.815px 307.78px;" id="elyleixhf2k9" class="animable"></line></g></g></g><g id="freepik--Floor--inject-3" class="animable" style="transform-origin: 376.165px 442.98px;"><line x1="15.03" y1="442.98" x2="737.3" y2="442.98" style="fill: none; stroke: rgb(38, 50, 56); stroke-miterlimit: 10; transform-origin: 376.165px 442.98px;" id="elio7a8ucqx48" class="animable"></line></g><defs>     <filter id="active" height="200%">         <feMorphology in="SourceAlpha" result="DILATED" operator="dilate" radius="2"></feMorphology>                <feFlood flood-color="#32DFEC" flood-opacity="1" result="PINK"></feFlood>        <feComposite in="PINK" in2="DILATED" operator="in" result="OUTLINE"></feComposite>        <feMerge>            <feMergeNode in="OUTLINE"></feMergeNode>            <feMergeNode in="SourceGraphic"></feMergeNode>        </feMerge>    </filter>    <filter id="hover" height="200%">        <feMorphology in="SourceAlpha" result="DILATED" operator="dilate" radius="2"></feMorphology>                <feFlood flood-color="#ff0000" flood-opacity="0.5" result="PINK"></feFlood>        <feComposite in="PINK" in2="DILATED" operator="in" result="OUTLINE"></feComposite>        <feMerge>            <feMergeNode in="OUTLINE"></feMergeNode>            <feMergeNode in="SourceGraphic"></feMergeNode>        </feMerge>            <feColorMatrix type="matrix" values="0   0   0   0   0                0   1   0   0   0                0   0   0   0   0                0   0   0   1   0 "></feColorMatrix>    </filter></defs></svg>