<svg xmlns="http://www.w3.org/2000/svg" viewBox="0 0 750 500"><g id="freepik--Clouds--inject-3"><path d="M215.08,101.79c2.89-1.7,5.33-5.1,8.1-7.27,7.06-5.52,15.7-8.81,24.72-8.62,20.69,.42,29.13,22.8,31.66,23.64,2.53,.84,8.02-8.02,17.31-6.33s10.98,9.29,13.93,11.4c2.96,2.11,10.98-3.8,16.04-2.11,5.07,1.69,4.22,7.18,9.29,7.6,5.07,.42,8.02-2.11,11.82-1.27,3.8,.84,6.33,4.64,6.33,4.64-58.69,0-117.39-.01-176.08,0-42.91,0-85.82,0-128.73,0,4.63-7.83,11.09-15.06,19.66-18.12,13.07-4.66,27.21,1.29,40.9,3.53,1.37,.22,2.85,.39,4.08-.25,1.65-.87,2.27-2.88,2.7-4.7,2.45-10.37,3.8-21.34,9.53-30.32,8.94-14.03,28.63-20.01,43.86-13.33,14.31,6.27,22.65,20.94,31.03,34.13,1.68,2.65,3.48,5.35,6.12,7.04,3.07,1.97,5.53,1.65,7.73,.35Z" style="fill:none; stroke:#263238; stroke-miterlimit:10;"></path><path d="M481.73,149.9c1.66-.98,3.06-2.93,4.66-4.18,4.06-3.18,9.03-5.06,14.22-4.96,11.9,.24,16.75,13.11,18.21,13.6,1.46,.49,4.61-4.61,9.95-3.64,5.34,.97,6.31,5.34,8.01,6.56,1.7,1.21,6.31-2.19,9.23-1.21,2.91,.97,2.43,4.13,5.34,4.37,2.91,.24,4.61-1.21,6.8-.73,2.19,.49,3.64,2.67,3.64,2.67-33.76,0-67.51,0-101.27,0-24.68,0-49.36,0-74.04,0,2.66-4.5,6.38-8.66,11.3-10.42,7.51-2.68,15.65,.74,23.52,2.03,.79,.13,1.64,.23,2.35-.15,.95-.5,1.31-1.66,1.55-2.7,1.41-5.96,2.19-12.27,5.48-17.44,5.14-8.07,16.46-11.51,25.23-7.67,8.23,3.61,13.03,12.04,17.85,19.63,.97,1.52,2,3.08,3.52,4.05,1.77,1.13,3.18,.95,4.45,.2Z" style="fill:none; stroke:#263238; stroke-miterlimit:10;"></path><path d="M628.76,66.4c1.4-.82,2.57-2.46,3.91-3.51,3.41-2.67,7.59-4.25,11.95-4.17,9.99,.2,14.07,11.01,15.3,11.42,1.22,.41,3.88-3.88,8.36-3.06,4.49,.82,5.3,4.49,6.73,5.51,1.43,1.02,5.3-1.84,7.75-1.02,2.45,.82,2.04,3.47,4.49,3.67,2.45,.2,3.88-1.02,5.71-.61,1.84,.41,3.06,2.24,3.06,2.24-28.36,0-56.72,0-85.08,0-20.73,0-41.47,0-62.2,0,2.24-3.78,5.36-7.28,9.5-8.76,6.31-2.25,13.15,.62,19.76,1.7,.66,.11,1.38,.19,1.97-.12,.8-.42,1.1-1.39,1.31-2.27,1.19-5.01,1.84-10.31,4.6-14.65,4.32-6.78,13.83-9.67,21.19-6.44,6.91,3.03,10.94,10.12,14.99,16.49,.81,1.28,1.68,2.58,2.96,3.4,1.48,.95,2.67,.8,3.74,.17Z" style="fill:none; stroke:#263238; stroke-miterlimit:10;"></path></g><g id="freepik--Mountains--inject-3"><g><path d="M723.66,328.1c5.13,4.55,8.06,7.18,8.06,7.18" style="fill:none; stroke:#263238; stroke-miterlimit:10;"></path><path d="M564.48,198.86c43.24,28.04,121.62,96.1,153.34,124.09" style="fill:none; stroke:#263238; stroke-miterlimit:10;"></path><path d="M256.38,219.24c59.08,17.65,143.92,55.32,143.92,55.32,0,0,114.53-81.5,136.67-87.89,3.47-1,10.64,1.96,20.26,7.67" style="fill:none; stroke:#263238; stroke-miterlimit:10;"></path><path d="M7.84,311.31s164.16-95.08,200.05-100.67c8.59-1.34,24.09,1.62,42.69,6.91" style="fill:none; stroke:#263238; stroke-miterlimit:10;"></path></g></g><g id="freepik--Car--inject-3"><g><path d="M609.9,401.56s58.44-5.45,60.13-6.39c1.69-.94,4.13-2.82,4.13-2.82l28.38,.38,.38-6.76-24.43-.38-40.03,4.13v-4.32s-1.88-27.25-22.17-43.78-31.76-18.79-59.57-17.85c-27.81,.94-58.82,43.41-63.33,51.68-4.51,8.27-6.39,9.77-6.39,9.77H210.96l-.24-8.37c-.75-25.83-18.6-48-43.68-54.24h0c-11.42-2.84-23.44-2.12-34.43,2.08l-11.67,4.45c-24.97,9.52-40.3,34.97-36.66,61.44,1.05,7.61,.93,12.61-1.66,10.8-8.08-5.64-.19,5.07,6.58,6.76,6.76,1.69,14.66,2.44,14.66,2.44H233.13l274.08-.63,102.69-8.39Z" style="fill:#263238; stroke:#263238; stroke-miterlimit:10;"></path><path d="M314.96,226.88s-95.76,63.47-98.33,63.47-4.04-1.1-5.87,.37c-1.83,1.47-3.67,2.2-3.67,2.2l-102.36,12.11s-36.69,7.34-44.03,9.54c-7.34,2.2-13.57,9.17-13.21,12.11s4.04,27.88,4.04,27.88l4.04,31.92s-2.2,11.37-.37,12.84c1.83,1.47,10.27,4.4,14.68,5.5,4.4,1.1,16.88,1.1,16.88,1.1,0,0,1.1-20.55,5.14-36.69,4.04-16.14,16.1-34.9,53.57-36.69,38.52-1.83,55.77,43.66,55.77,43.66l7.7,28.62,14.68,5.14H507.21s-1.1-31.92,5.14-44.76c6.24-12.84,23.11-27.15,43.66-29.72,20.55-2.57,37.79,3.67,46.96,7.34,9.17,3.67,19.81,28.62,21.28,36.69,1.47,8.07,3.3,8.44,3.3,8.44,0,0,66.41-3.67,70.44-6.97,4.04-3.3,9.54-18.34,10.64-39.26,1.1-20.91-.37-40.72-2.57-44.03-2.2-3.3-6.97-3.67-6.97-3.67l-83.28-5.5s-76.31-62.37-80.72-63.47c-1.82-.45-4.44-1.09-6.9-1.69-4.41-1.07-8.92-1.69-13.46-1.86l-43.11-1.58-60.17,.37s-61.64-.73-96.49,6.6Z" style="fill:#017EFF; stroke:#263238; stroke-miterlimit:10;"></path><polygon points="693.36 311.31 190 311.31 70.96 318.5 693.36 318.5 693.36 311.31" style="fill:#fff; opacity:.62;"></polygon><path d="M621.31,365.57h96.21c1.78,0,3.22-1.44,3.22-3.22v-8.6c0-1.78-1.44-3.22-3.22-3.22h-102.81l6.6,15.04Z" style="fill:#263238; stroke:#263238; stroke-miterlimit:10;"></path><path d="M89,371.8H43.92c-2.28,0-4.13-1.85-4.13-4.13v-6.79c0-2.28,1.85-4.13,4.13-4.13h50.17l-5.1,15.04Z" style="fill:#263238; stroke:#263238; stroke-miterlimit:10;"></path><g><rect x="197.56" y="353.09" width="38.16" height="6.98" style="fill:#263238; stroke:#263238; stroke-miterlimit:10;"></rect><rect x="238.65" y="353.09" width="156.66" height="6.98" style="fill:#263238; stroke:#263238; stroke-miterlimit:10;"></rect><polygon points="398.25 353.09 398.25 360.07 503.54 360.07 507.21 353.09 398.25 353.09" style="fill:#263238; stroke:#263238; stroke-miterlimit:10;"></polygon></g><g><path d="M69.88,404.82c4.4,1.1,16.88,1.1,16.88,1.1,0,0,.43-8.02,1.74-17.98H55.31c-.52,3.12-1.53,10.23-.11,11.37,1.83,1.47,10.27,4.4,14.68,5.5Z" style="fill:#263238; stroke:#263238; stroke-miterlimit:10;"></path><path d="M507.36,394.18H206.07l2.86,10.64,14.68,5.14H507.21s-.24-7.01,.14-15.78Z" style="fill:#263238; stroke:#263238; stroke-miterlimit:10;"></path></g><rect x="364.13" y="309.8" width="25.68" height="4.77" style="fill:#263238; stroke:#263238; stroke-miterlimit:10;"></rect><rect x="509.78" y="309.8" width="25.68" height="4.77" style="fill:#263238; stroke:#263238; stroke-miterlimit:10;"></rect><path d="M238.28,292.92c7.34-2.57,77.41-57.23,78.88-62.74,.42-1.59,.47-2.83,.34-3.81-.86,.17-1.71,.33-2.54,.51,0,0-95.76,63.47-98.33,63.47,0,0,14.31,5.14,21.65,2.57Z" style="fill:#878787; stroke:#263238; stroke-miterlimit:10;"></path><path d="M608.84,288.52c1.47,.37,10.27,.37,10.27,.37l-.11-.16-3.19-.21s-76.31-62.37-80.72-63.47c0,0,5.14,5.14,9.17,8.44,4.04,3.3,63.1,54.67,64.57,55.03Z" style="fill:#878787; stroke:#263238; stroke-miterlimit:10;"></path><path d="M705.67,310.44c-2.52-.19-4.71,1.7-4.89,4.22l-1.14,15.4c-.19,2.52,1.7,4.71,4.22,4.89l3.33,.25c.6,.04,1.17-.04,1.71-.21,.25-9.12,.04-17.69-.49-24.35l-2.74-.2Z" style="fill:#fff; stroke:#263238; stroke-miterlimit:10;"></path><g><circle cx="143.69" cy="393.76" r="49.22" transform="translate(-275.08 375.82) rotate(-67.5)" style="fill:#263238; stroke:#263238; stroke-miterlimit:10;"></circle><circle cx="143.69" cy="393.76" r="30.53" transform="translate(-257.99 273.99) rotate(-53.35)" style="fill:#fff; stroke:#263238; stroke-miterlimit:10;"></circle><circle cx="143.69" cy="393.76" r="18.01" transform="translate(-61.22 28.1) rotate(-9.22)" style="fill:#fff; stroke:#263238; stroke-miterlimit:10;"></circle><path d="M147.21,386.89c0-1.46-1.18-2.65-2.65-2.65s-2.65,1.18-2.65,2.65,1.18,2.65,2.65,2.65,2.65-1.18,2.65-2.65Z" style="fill:#263238; stroke:#263238; stroke-miterlimit:10;"></path><path d="M138.24,394.11c0-1.46-1.18-2.65-2.65-2.65s-2.65,1.18-2.65,2.65,1.18,2.65,2.65,2.65,2.65-1.18,2.65-2.65Z" style="fill:#263238; stroke:#263238; stroke-miterlimit:10;"></path><path d="M153.69,396.53c0-1.46-1.18-2.65-2.65-2.65s-2.65,1.18-2.65,2.65,1.18,2.65,2.65,2.65,2.65-1.18,2.65-2.65Z" style="fill:#263238; stroke:#263238; stroke-miterlimit:10;"></path><circle cx="142.43" cy="402.33" r="2.65" style="fill:#263238; stroke:#263238; stroke-miterlimit:10;"></circle></g><g><circle cx="565.02" cy="393.76" r="49.22" transform="translate(-76.88 144.24) rotate(-13.63)" style="fill:#263238; stroke:#263238; stroke-miterlimit:10;"></circle><circle cx="565.02" cy="393.76" r="30.53" transform="translate(-77.25 145.2) rotate(-13.72)" style="fill:#fff; stroke:#263238; stroke-miterlimit:10;"></circle><circle cx="565.02" cy="393.76" r="18.01" transform="translate(-55.51 95.03) rotate(-9.17)" style="fill:#fff; stroke:#263238; stroke-miterlimit:10;"></circle><path d="M568.54,386.89c0-1.46-1.18-2.65-2.65-2.65s-2.65,1.18-2.65,2.65,1.18,2.65,2.65,2.65,2.65-1.18,2.65-2.65Z" style="fill:#263238; stroke:#263238; stroke-miterlimit:10;"></path><path d="M559.57,394.11c0-1.46-1.18-2.65-2.65-2.65s-2.65,1.18-2.65,2.65,1.18,2.65,2.65,2.65,2.65-1.18,2.65-2.65Z" style="fill:#263238; stroke:#263238; stroke-miterlimit:10;"></path><circle cx="572.37" cy="396.53" r="2.65" style="fill:#263238; stroke:#263238; stroke-miterlimit:10;"></circle><path d="M566.4,402.33c0-1.46-1.18-2.65-2.65-2.65s-2.65,1.18-2.65,2.65,1.18,2.65,2.65,2.65,2.65-1.18,2.65-2.65Z" style="fill:#263238; stroke:#263238; stroke-miterlimit:10;"></path></g><path d="M330.05,235.69s-77,59.51-76.03,60.73,5.1,.73,5.1,.73l288.1-7.04s6.07-8.5,5.83-13.12c-.24-4.62-7.29-12.39-7.29-12.39,0,0-28.42-31.58-35.95-33.77-7.53-2.19-112.47-.73-112.47-.73l-59.03,3.64s-5.34,.73-8.26,1.94Z" style="fill:#5c5c5c; stroke:#263238; stroke-miterlimit:10;"></path><path d="M388.66,293.98l27.4-.67,11.28-63.52c-9.17,.07-17.12,.16-22.54,.22l-16.15,63.97Z" style="fill:#263238; stroke:#263238; stroke-miterlimit:10;"></path><line x1="416.77" y1="232.53" x2="405.35" y2="289.86" style="fill:none; stroke:#878787; stroke-miterlimit:10;"></line><path d="M503.55,230.21l6.73,44.59-2.85,16.28,8.75-.21-7.36-60.22c-1.14-.17-2.94-.31-5.28-.43Z" style="fill:#263238; stroke:#263238; stroke-miterlimit:10;"></path><path d="M278.55,281.6l-8.26,14.09s1.7,2.19,4.13,.73c2.43-1.46,9.96-8.02,9.96-8.02l-5.83-6.8Z" style="fill:#878787; stroke:#263238; stroke-miterlimit:10;"></path><path d="M281.6,271.36h4.2v19.43h-4.2c-1.97,0-3.58-1.6-3.58-3.58v-12.28c0-1.97,1.6-3.58,3.58-3.58Z" transform="translate(-42.17 49.89) rotate(-9.41)" style="fill:#878787; stroke:#263238; stroke-miterlimit:10;"></path><g><path d="M357.74,227.46c-11.96,.94-23.3,2.2-27.73,3.83-11.01,4.04-81.45,65.67-81.45,65.67" style="fill:none; stroke:#263238; stroke-miterlimit:10;"></path><path d="M539.82,323.95c2.01-1.58,3.54-3.15,4.45-4.98,3.3-6.6,7.34-26.78,7.34-26.78,0,0,9.54-11.74,3.67-23.85-5.87-12.11-28.62-33.39-34.12-37.06-5.5-3.67-15.41-5.5-18.34-5.5s-108.23-.37-108.23-.37c0,0-13.88,.48-28.96,1.47" style="fill:none; stroke:#263238; stroke-miterlimit:10;"></path><path d="M462.77,387.95h36.37s4.77-34.85,17.61-46.96c7.08-6.67,13.71-10.67,18.79-14.02" style="fill:none; stroke:#263238; stroke-miterlimit:10;"></path><line x1="248.13" y1="387.95" x2="456.22" y2="387.95" style="fill:none; stroke:#263238; stroke-miterlimit:10;"></line><path d="M236.68,321.52c-.62,14.43,.01,40.67,.87,48.08,1.1,9.54,2.57,18.34,2.57,18.34h3.53" style="fill:none; stroke:#263238; stroke-miterlimit:10;"></path><path d="M243.42,301.73s-4.04,4.4-5.87,11.01" style="fill:none; stroke:#263238; stroke-miterlimit:10;"></path><path d="M396.7,343.53c-.48,17.47-.65,42.21-.65,42.21" style="fill:none; stroke:#263238; stroke-miterlimit:10;"></path><path d="M404.85,296.22s-6.24,24.21-7.34,31.19c-.25,1.6-.47,5.53-.65,10.64" style="fill:none; stroke:#263238; stroke-miterlimit:10;"></path><line x1="212.08" y1="300.11" x2="227" y2="298.69" style="fill:none; stroke:#263238; stroke-miterlimit:10;"></line><line x1="60.71" y1="314.57" x2="202.92" y2="300.99" style="fill:none; stroke:#263238; stroke-miterlimit:10;"></line></g></g></g><g id="freepik--Floor--inject-3"><line x1="15.03" y1="442.98" x2="737.3" y2="442.98" style="fill:none; stroke:#263238; stroke-miterlimit:10;"></line></g></svg>
